<?xml version="1.0" encoding="utf-8"?>
<!-- Generator: Adobe Illustrator 24.0.1, SVG Export Plug-In . SVG Version: 6.00 Build 0)  -->
<svg version="1.1" id="Layer_1" xmlns="http://www.w3.org/2000/svg" xmlns:xlink="http://www.w3.org/1999/xlink" x="0px" y="0px"
	 viewBox="0 0 100 100" style="enable-background:new 0 0 100 100;" xml:space="preserve">
<style type="text/css">
	.st0{fill:#A6325C;}
	.st1{fill:#FF912B;}
	.st2{fill:#40BED3;}
	.st3{fill:#213B4F;}
	.st4{fill-rule:evenodd;clip-rule:evenodd;fill:#FF912B;}
	.st5{fill:#231F20;}
	.st6{fill:none;}
	.st7{fill:#E68429;}
	.st8{fill:#CC8035;}
	.st9{fill:#DBE0E3;}
	.st10{fill:#BCC4CA;}
	.st11{fill:#FFFFFF;}
	.st12{fill:#282D33;}
	.st13{fill:#E3E3E3;}
</style>
<g id="Icon3">
	<g>
		<path class="st3" d="M91,82.6c-0.1-1-0.5-2-1.2-2.7l-9.8-9.8c-0.7-0.7-1.7-1.2-2.7-1.2c-0.3,0-0.6,0-0.9,0.1l-6.6-6.6
			c2.6-3.8,4-8.3,4-13c0-6.2-2.4-12.1-6.8-16.5c-4.4-4.4-10.2-6.8-16.5-6.8c-6.2,0-12.1,2.4-16.5,6.8c-4.3,4.3-6.7,10-6.8,16H10.1
			V31.2H9V50h6.9c0.3,18.5,15,33.5,33.4,34.3c0.4,1.8,2,3.1,3.9,3.1c2.2,0,4-1.8,4-4c0-2.2-1.8-4-4-4c-1.7,0-3.2,1.1-3.8,2.7
			c-17.2-0.7-30.9-14.7-31.2-32h9c0.2,6,2.6,11.5,6.8,15.8c4.5,4.5,10.5,6.8,16.5,6.8c5,0,10-1.6,14.1-4.8l6.3,6.3
			c-0.1,0.4-0.2,0.8-0.1,1.2c0,1,0.5,2,1.2,2.7l9.8,9.8c0.7,0.7,1.7,1.2,2.7,1.2c0.1,0,0.2,0,0.2,0c1,0,1.9-0.4,2.5-1l2.7-2.7
			C90.7,84.7,91.1,83.7,91,82.6z M53.2,81.4c1.1,0,1.9,0.9,1.9,1.9c0,1.1-0.9,1.9-1.9,1.9c-1.1,0-1.9-0.9-1.9-1.9
			C51.3,82.3,52.1,81.4,53.2,81.4z M35.9,63.9c-3.9-3.9-6-9.1-6-14.6c0-5.5,2.1-10.7,6-14.6s9.1-6,14.6-6c5.5,0,10.7,2.1,14.6,6
			c3.9,3.9,6,9.1,6,14.6c0,5.5-2.1,10.7-6,14.6C57,72,43.9,72,35.9,63.9z M71.8,72.7c0,0-0.1,0.1-0.1,0.1l-5.5-5.5l3.1-3.1l5.5,5.5
			c-0.1,0.1-0.2,0.2-0.3,0.3L71.8,72.7z M88.4,83.8l-2.7,2.7c-0.3,0.3-0.6,0.4-1.1,0.4c-0.5,0-0.9-0.2-1.3-0.6l-9.8-9.8
			c-0.2-0.2-0.3-0.3-0.4-0.5l4.7-4.7c0.2,0.1,0.4,0.2,0.5,0.4l9.8,9.8h0c0.3,0.3,0.5,0.8,0.6,1.3C88.8,83.2,88.7,83.6,88.4,83.8z"/>
		<polygon class="st3" points="28.4,35.8 25.7,36.1 26.7,37 22,43 20.1,39.9 17.1,44.5 15.1,41.1 11.6,46.3 12.4,46.8 15,43 
			17,46.4 20.1,41.7 21.8,44.7 27.4,37.7 28.4,38.6 		"/>
	</g>
	<g>
		<rect x="40.6" y="49.2" class="st0" width="5" height="7.8"/>
		<rect x="47.3" y="44.9" class="st3" width="5" height="7.9"/>
		<rect x="47.3" y="53.9" class="st2" width="5" height="2.9"/>
		<rect x="54" y="40.9" class="st1" width="5" height="9.5"/>
		<rect x="54" y="51.6" class="st3" width="5" height="5.4"/>
	</g>
	<rect x="82.4" y="50.2" class="st3" width="5.4" height="5.4"/>
	<g>
		<path class="st3" d="M52.9,13.5c-0.5-1.5-2-2.6-3.7-2.6c-2.2,0-4,1.8-4,4s1.8,4,4,4c1.8,0,3.4-1.3,3.8-3
			c17.3,0.7,31.1,15,31.1,32.5h2.3C86.4,29.5,71.5,14.2,52.9,13.5z M49.2,16.7c-1,0-1.9-0.8-1.9-1.9s0.8-1.9,1.9-1.9
			s1.9,0.8,1.9,1.9S50.2,16.7,49.2,16.7z"/>
	</g>
	<path class="st3" d="M50.3,67.4c-9.9,0-17.9-8-17.9-17.9s8-17.9,17.9-17.9c9.9,0,17.9,8,17.9,17.9S60.2,67.4,50.3,67.4z M50.3,33.5
		c-8.8,0-15.9,7.2-15.9,15.9s7.2,15.9,15.9,15.9c8.8,0,15.9-7.2,15.9-15.9S59.1,33.5,50.3,33.5z"/>
</g>
</svg>
