<?xml version="1.0" encoding="utf-8"?>
<!-- Generator: Adobe Illustrator 24.0.1, SVG Export Plug-In . SVG Version: 6.00 Build 0)  -->
<svg version="1.1" id="Layer_1" xmlns="http://www.w3.org/2000/svg" xmlns:xlink="http://www.w3.org/1999/xlink" x="0px" y="0px"
	 viewBox="0 0 100 100" style="enable-background:new 0 0 100 100;" xml:space="preserve">
<style type="text/css">
	.st0{fill:#A6325C;}
	.st1{fill:#FF912B;}
	.st2{fill:#40BED3;}
	.st3{fill:#213B4F;}
	.st4{fill-rule:evenodd;clip-rule:evenodd;fill:#FF912B;}
	.st5{fill:#231F20;}
	.st6{fill:none;}
	.st7{fill:#E68429;}
	.st8{fill:#CC8035;}
	.st9{fill:#DBE0E3;}
	.st10{fill:#BCC4CA;}
	.st11{fill:#FFFFFF;}
	.st12{fill:#282D33;}
	.st13{fill:#E3E3E3;}
</style>
<g id="Icon2">
	<path class="st3" d="M71.1,65.9h-7.3c-0.9,0-1.7-0.7-1.7-1.7c0-0.9,0.7-1.7,1.7-1.7h7.3c5.8,0,10.5-4.8,10.5-10.6
		c0-5.5-4.2-10-9.7-10.5c-0.8-0.1-1.5-0.7-1.5-1.5c-0.4-6.4-5.8-11.4-12.3-11.4c-1.8,0-3.5,0.4-5.2,1.1c-0.6,0.3-1.3,0.2-1.7-0.3
		c-2.7-2.4-6.1-3.6-9.8-3.6c-8.2,0-14.9,6.6-15,14.8c0,0.7-0.4,1.3-1.1,1.5c-4.2,1.5-7,5.5-7,9.9c0,5.9,4.8,10.6,10.6,10.6h7.2
		c0.9,0,1.7,0.7,1.7,1.7c0,0.9-0.7,1.7-1.7,1.7h-7.2C21.3,65.9,15,59.7,15,52c0-5.4,3.2-10.4,8.2-12.6c0.7-9.4,8.7-16.9,18.3-16.9
		c4.1,0,8,1.3,11.2,3.8c1.8-0.7,3.7-1,5.6-1c7.8,0,14.3,5.7,15.4,13.2C80.2,39.6,85,45.2,85,52C85,59.7,78.8,65.9,71.1,65.9z"/>
	<path class="st2" d="M49.2,55.9l-4.3-4.3c-0.1-0.1-0.2-0.1-0.3-0.2c0,0-0.1,0-0.1-0.1c-0.1,0-0.1-0.1-0.2-0.1c-0.1,0-0.1,0-0.2,0
		c0,0-0.1,0-0.1,0c-0.1,0-0.1,0-0.2,0c0,0-0.1,0-0.1,0c0,0,0,0,0,0c0,0,0,0,0,0l0,0c0,0-0.1,0-0.1,0c-0.1,0-0.1,0-0.2,0c0,0,0,0,0,0
		c0,0-0.1,0-0.1,0c-0.1,0-0.1,0-0.2,0.1c0,0,0,0,0,0c0,0-0.1,0-0.1,0.1c-0.1,0-0.1,0-0.2,0.1c0,0,0,0,0,0c-0.1,0-0.1,0.1-0.2,0.1
		c0,0,0,0-0.1,0.1l0,0c0,0,0,0,0,0l-4.4,4.3c-0.7,0.6-0.7,1.7,0,2.3c0.3,0.3,0.8,0.5,1.2,0.5c0.4,0,0.8-0.2,1.2-0.5l1.6-1.6v19.2
		c0,0.9,0.7,1.7,1.7,1.7c0.9,0,1.7-0.7,1.7-1.7V56.7l1.5,1.5c0.3,0.3,0.7,0.5,1.2,0.5s0.8-0.2,1.2-0.5
		C49.8,57.6,49.8,56.5,49.2,55.9z"/>
	<path class="st2" d="M61.9,70.4c-0.6-0.6-1.7-0.6-2.3,0l-1.5,1.5V52.7c0-0.9-0.7-1.7-1.7-1.7c-0.9,0-1.7,0.7-1.7,1.7v19.2l-1.6-1.6
		c-0.7-0.6-1.7-0.6-2.3,0c-0.6,0.7-0.6,1.7,0,2.3l4.4,4.3c0,0,0,0,0,0l0,0c0,0,0,0,0.1,0c0.1,0.1,0.1,0.1,0.2,0.2c0,0,0,0,0,0
		c0,0,0.1,0,0.1,0.1c0.1,0,0.1,0.1,0.2,0.1c0,0,0,0,0,0c0.1,0,0.1,0,0.2,0c0,0,0.1,0,0.1,0c0,0,0,0,0,0c0.1,0,0.2,0,0.3,0
		c0.1,0,0.2,0,0.3,0c0,0,0,0,0,0c0.1,0,0.1,0,0.1,0c0.1,0,0.1,0,0.2,0c0,0,0,0,0,0c0.1,0,0.1-0.1,0.2-0.1c0,0,0.1,0,0.1-0.1
		c0,0,0,0,0,0c0.1-0.1,0.2-0.1,0.3-0.2l0,0l0,0l0,0l4.3-4.3C62.6,72.1,62.6,71,61.9,70.4z"/>
</g>
</svg>
