<?xml version="1.0" encoding="utf-8"?>
<!-- Generator: Adobe Illustrator 24.0.1, SVG Export Plug-In . SVG Version: 6.00 Build 0)  -->
<svg version="1.1" id="Layer_1" xmlns="http://www.w3.org/2000/svg" xmlns:xlink="http://www.w3.org/1999/xlink" x="0px" y="0px"
	 viewBox="0 0 100 100" style="enable-background:new 0 0 100 100;" xml:space="preserve">
<style type="text/css">
	.st0{fill:#A6325C;}
	.st1{fill:#FF912B;}
	.st2{fill:#40BED3;}
	.st3{fill:#213B4F;}
	.st4{fill-rule:evenodd;clip-rule:evenodd;fill:#FF912B;}
	.st5{fill:#231F20;}
	.st6{fill:none;}
	.st7{fill:#E68429;}
	.st8{fill:#CC8035;}
	.st9{fill:#DBE0E3;}
	.st10{fill:#BCC4CA;}
	.st11{fill:#FFFFFF;}
	.st12{fill:#282D33;}
	.st13{fill:#E3E3E3;}
</style>
<g>
	<path class="st3" d="M74.6,46.1H25.4c-0.4,0-0.8,0.2-0.9,0.6c-0.2,0.4-0.1,0.8,0.2,1.1l21.4,21.9v8.5c0,0.4,0.2,0.7,0.5,0.9l5.9,3
		C52.7,82,52.8,82,53,82c0.2,0,0.4,0,0.5-0.1c0.3-0.2,0.5-0.5,0.5-0.8V69.6l21.4-21.9c0.3-0.3,0.4-0.7,0.2-1.1
		C75.4,46.3,75,46.1,74.6,46.1z M52.2,68.5c-0.2,0.2-0.3,0.4-0.3,0.7v10.2l-3.9-2v-8.3c0-0.3-0.1-0.5-0.3-0.7l-15.7-16h32.2
		c0.5,0,1-0.4,1-1c0-0.5-0.4-1-1-1H30.1L27.7,48h44.6L52.2,68.5z"/>
	<path class="st2" d="M41.1,30.3c0.5,0,1-0.4,1-1v-7.4c0-0.5-0.4-1-1-1s-1,0.4-1,1v7.4C40.2,29.9,40.6,30.3,41.1,30.3z"/>
	<path class="st2" d="M46.6,33.3v7.4c0,0.5,0.4,1,1,1c0.5,0,1-0.4,1-1v-7.4c0-0.5-0.4-1-1-1C47,32.3,46.6,32.7,46.6,33.3z"/>
	<path class="st2" d="M61.3,41.6c0.5,0,1-0.4,1-1v-7.4c0-0.5-0.4-1-1-1c-0.5,0-1,0.4-1,1v7.4C60.3,41.2,60.8,41.6,61.3,41.6z"/>
	<path class="st2" d="M54.4,30.3c0.5,0,1-0.4,1-1v-7.4c0-0.5-0.4-1-1-1c-0.5,0-1,0.4-1,1v7.4C53.4,29.9,53.9,30.3,54.4,30.3z"/>
	<path class="st2" d="M58.9,30.3c0.5,0,1-0.4,1-1v-7.4c0-0.5-0.4-1-1-1s-1,0.4-1,1v7.4C57.9,29.9,58.3,30.3,58.9,30.3z"/>
	<path class="st2" d="M47.7,30.3h0.2c1.7,0,3.1-1.4,3.1-3.1V24c0-1.7-1.4-3.1-3.1-3.1h-0.2c-1.7,0-3.1,1.4-3.1,3.1v3.2
		C44.6,28.9,46,30.3,47.7,30.3z M46.6,24c0-0.6,0.5-1.1,1.1-1.1h0.2c0.6,0,1.1,0.5,1.1,1.1v3.2c0,0.6-0.5,1.1-1.1,1.1h-0.2
		c-0.6,0-1.1-0.5-1.1-1.1V24z"/>
	<path class="st2" d="M40.8,41.6H41c1.7,0,3.1-1.4,3.1-3.1v-3.2c0-1.7-1.4-3.1-3.1-3.1h-0.2c-1.7,0-3.1,1.4-3.1,3.1v3.2
		C37.7,40.2,39.1,41.6,40.8,41.6z M39.7,35.4c0-0.6,0.5-1.1,1.1-1.1H41c0.6,0,1.1,0.5,1.1,1.1v3.2c0,0.6-0.5,1.1-1.1,1.1h-0.2
		c-0.6,0-1.1-0.5-1.1-1.1V35.4z"/>
	<path class="st2" d="M54.6,41.6h0.2c1.7,0,3.1-1.4,3.1-3.1v-3.2c0-1.7-1.4-3.1-3.1-3.1h-0.2c-1.7,0-3.1,1.4-3.1,3.1v3.2
		C51.5,40.2,52.9,41.6,54.6,41.6z M53.4,35.4c0-0.6,0.5-1.1,1.1-1.1h0.2c0.6,0,1.1,0.5,1.1,1.1v3.2c0,0.6-0.5,1.1-1.1,1.1h-0.2
		c-0.6,0-1.1-0.5-1.1-1.1V35.4z"/>
	<path class="st1" d="M69.7,40.6c0.5,0,1-0.4,1-1V26.9c0-0.5-0.4-1-1-1c-0.5,0-1,0.4-1,1v12.8C68.7,40.2,69.1,40.6,69.7,40.6z"/>
	<path class="st1" d="M74.6,18c-0.5,0-1,0.4-1,1v12.8c0,0.5,0.4,1,1,1c0.5,0,1-0.4,1-1V19C75.6,18.4,75.2,18,74.6,18z"/>
	<path class="st1" d="M74.6,35.7c-0.5,0-1,0.4-1,1v3c0,0.5,0.4,1,1,1c0.5,0,1-0.4,1-1v-3C75.6,36.2,75.2,35.7,74.6,35.7z"/>
	<path class="st1" d="M25.4,40.6c0.5,0,1-0.4,1-1V26.9c0-0.5-0.4-1-1-1c-0.5,0-1,0.4-1,1v12.8C24.4,40.2,24.8,40.6,25.4,40.6z"/>
	<path class="st1" d="M30.3,32.8c0.5,0,1-0.4,1-1V19c0-0.5-0.4-1-1-1c-0.5,0-1,0.4-1,1v12.8C29.3,32.3,29.8,32.8,30.3,32.8z"/>
	<path class="st1" d="M30.3,40.6c0.5,0,1-0.4,1-1v-3c0-0.5-0.4-1-1-1c-0.5,0-1,0.4-1,1v3C29.3,40.2,29.8,40.6,30.3,40.6z"/>
</g>
</svg>
