<?xml version="1.0" encoding="utf-8"?>
<!-- Generator: Adobe Illustrator 24.0.1, SVG Export Plug-In . SVG Version: 6.00 Build 0)  -->
<svg version="1.1" id="Layer_1" xmlns="http://www.w3.org/2000/svg" xmlns:xlink="http://www.w3.org/1999/xlink" x="0px" y="0px"
	 viewBox="0 0 100 100" style="enable-background:new 0 0 100 100;" xml:space="preserve">
<style type="text/css">
	.st0{fill:#A6325C;}
	.st1{fill:#FF912B;}
	.st2{fill:#40BED3;}
	.st3{fill:#213B4F;}
	.st4{fill-rule:evenodd;clip-rule:evenodd;fill:#FF912B;}
	.st5{fill:#231F20;}
	.st6{fill:none;}
	.st7{fill:#E68429;}
	.st8{fill:#CC8035;}
	.st9{fill:#DBE0E3;}
	.st10{fill:#BCC4CA;}
	.st11{fill:#FFFFFF;}
	.st12{fill:#282D33;}
	.st13{fill:#E3E3E3;}
</style>
<g>
	<path class="st3" d="M67,64.3c-0.5-0.8-1.5-1.2-2.4-1l-3.9-6.7c2.4-2.1,4.2-4.9,5-8.1c1.1-4.2,0.6-8.6-1.6-12.4
		c-4.5-7.8-14.5-10.5-22.3-6c-7.8,4.5-10.5,14.5-6,22.3c2.2,3.8,5.7,6.5,9.9,7.6c1.4,0.4,2.8,0.6,4.3,0.6c1.8,0,3.6-0.3,5.2-0.9
		l3.9,6.7c-0.7,0.7-0.8,1.7-0.4,2.6l6.9,11.9c0.4,0.7,1.1,1.1,1.8,1.1c0.4,0,0.7-0.1,1.1-0.3l4.6-2.6c1-0.6,1.4-1.9,0.8-2.9L67,64.3
		z M37.7,51.5C33.8,44.7,36.1,36,42.9,32c2.2-1.3,4.7-1.9,7.1-1.9c4.9,0,9.7,2.6,12.3,7.1c1.9,3.3,2.4,7.1,1.4,10.8
		c-1,3.7-3.3,6.7-6.6,8.6C50.3,60.6,41.6,58.3,37.7,51.5z M59.1,58l3.7,6.4l-0.4,0.2l-1.4,0.8L57.3,59L59.1,58z M72,77.3L72,77.3
		l-4.6,2.6L60.6,68l0.5-0.3c0,0,0,0,0,0l1.8-1.1l2.3-1.3L72,77.3L72,77.3z"/>
	<path class="st1" d="M76.9,49.6h-5.8V34.9c0-0.6-0.5-1.1-1.1-1.1h-4.7c-0.6,0-1.1,0.5-1.1,1.1s0.5,1.1,1.1,1.1H69v13.7h-1.1
		c-0.6,0-1.1,0.5-1.1,1.1c0,0.6,0.5,1.1,1.1,1.1h9c0.6,0,1.1-0.5,1.1-1.1C77.9,50.1,77.5,49.6,76.9,49.6z"/>
	<path class="st2" d="M61.6,50.7c0-0.6-0.5-1.1-1.1-1.1h-6.3V32.8c0-0.6-0.5-1.1-1.1-1.1s-1.1,0.5-1.1,1.1v16.9h-4.2V32.8
		c0-0.6-0.5-1.1-1.1-1.1s-1.1,0.5-1.1,1.1v16.9H40c-0.6,0-1.1,0.5-1.1,1.1c0,0.6,0.5,1.1,1.1,1.1h6.9h6.3h7.4
		C61.1,51.7,61.6,51.3,61.6,50.7z"/>
	<path class="st1" d="M33.1,49.6H31v-19h4.2v1.6c0,0.6,0.5,1.1,1.1,1.1s1.1-0.5,1.1-1.1v-2.6c0-0.6-0.5-1.1-1.1-1.1H30
		c-0.6,0-1.1,0.5-1.1,1.1v20h-4.7V19.1c0-0.6-0.5-1.1-1.1-1.1c-0.6,0-1.1,0.5-1.1,1.1v31.6c0,0.6,0.5,1.1,1.1,1.1h10
		c0.6,0,1.1-0.5,1.1-1.1C34.2,50.1,33.7,49.6,33.1,49.6z"/>
	<path class="st2" d="M46.8,27.5c0.6,0,1.1-0.5,1.1-1.1v-1.6h4.2v1.6c0,0.6,0.5,1.1,1.1,1.1s1.1-0.5,1.1-1.1v-2.6
		c0-0.6-0.5-1.1-1.1-1.1h-6.3c-0.6,0-1.1,0.5-1.1,1.1v2.6C45.8,27,46.3,27.5,46.8,27.5z"/>
</g>
</svg>
