<?xml version="1.0" encoding="utf-8"?>
<!-- Generator: Adobe Illustrator 24.0.1, SVG Export Plug-In . SVG Version: 6.00 Build 0)  -->
<svg version="1.1" id="Layer_1" xmlns="http://www.w3.org/2000/svg" xmlns:xlink="http://www.w3.org/1999/xlink" x="0px" y="0px"
	 viewBox="0 0 100 100" style="enable-background:new 0 0 100 100;" xml:space="preserve">
<style type="text/css">
	.st0{fill:#A6325C;}
	.st1{fill:#FF912B;}
	.st2{fill:#40BED3;}
	.st3{fill:#213B4F;}
	.st4{fill-rule:evenodd;clip-rule:evenodd;fill:#FF912B;}
	.st5{fill:#231F20;}
	.st6{fill:none;}
	.st7{fill:#E68429;}
	.st8{fill:#CC8035;}
	.st9{fill:#DBE0E3;}
	.st10{fill:#BCC4CA;}
	.st11{fill:#FFFFFF;}
	.st12{fill:#282D33;}
	.st13{fill:#E3E3E3;}
</style>
<g id="Icon19">
	<path class="st3" d="M80.3,64.7l-3.4-1.9c1.2-3.3,1.9-6.8,1.9-10.4c0-15.7-12.1-28.7-27.7-29.8l-5-4.6c0,0,0,0,0,0c0,0,0,0-0.1,0
		c0,0,0,0-0.1,0c0,0,0,0-0.1,0c0,0,0,0-0.1,0c0,0,0,0-0.1,0c0,0,0,0-0.1,0c0,0,0,0-0.1,0c0,0,0,0-0.1,0c0,0,0,0-0.1,0c0,0,0,0-0.1,0
		c0,0,0,0-0.1,0c0,0,0,0-0.1,0c0,0,0,0-0.1,0c0,0,0,0-0.1,0c0,0,0,0,0,0c0,0,0,0,0,0c0,0,0,0-0.1,0c0,0,0,0-0.1,0c0,0,0,0-0.1,0
		c0,0,0,0-0.1,0c0,0,0,0-0.1,0c0,0,0,0-0.1,0c0,0,0,0-0.1,0c0,0,0,0-0.1,0c0,0,0,0-0.1,0c0,0,0,0-0.1,0c0,0,0,0-0.1,0c0,0,0,0-0.1,0
		c0,0,0,0-0.1,0c0,0,0,0-0.1,0c0,0,0,0-0.1,0c0,0,0,0-0.1,0.1c0,0,0,0,0,0c0,0,0,0,0,0c0,0,0,0,0,0.1c0,0,0,0,0,0.1c0,0,0,0,0,0.1
		c0,0,0,0,0,0.1c0,0,0,0,0,0.1c0,0,0,0,0,0.1c0,0,0,0,0,0.1c0,0,0,0,0,0.1c0,0,0,0,0,0.1c0,0,0,0,0,0.1c0,0,0,0,0,0.1c0,0,0,0,0,0.1
		c0,0,0,0,0,0.1c0,0,0,0.1,0,0.1c0,0,0,0,0,0V23C37,24.2,31,27.6,26.5,32.7C21.7,38.1,19,45.1,19,52.4c0,4.8,1,9.4,3,13.3l-1.4,6.5
		c-0.2,0.8,0.3,1.5,1.1,1.7c0.1,0,0.2,0,0.3,0c0.3,0,0.6-0.1,0.9-0.3l3.3-1.9c2.6,3.1,5.9,5.6,9.5,7.4c4.1,2.1,8.7,3.2,13.3,3.2
		c9.9,0,19-4.8,24.6-13l6.2-2c0.4,0,0.8-0.3,1.1-0.7C81.2,66,81,65.1,80.3,64.7z M21.8,52.4c0-13.5,10.1-25,23.4-26.8c0,0,0,0,0,0
		c0,0,0.1,0,0.1,0c0,0,0,0,0,0c0,0,0.1,0,0.1,0c0,0,0,0,0,0c0,0,0.1,0,0.1,0c0,0,0,0,0.1,0c0,0,0,0,0.1,0c0,0,0,0,0.1,0
		c0,0,0,0,0.1,0c0,0,0,0,0.1,0c0,0,0,0,0.1,0c0,0,0,0,0,0c0,0,0,0,0.1-0.1c0,0,0,0,0,0c0,0,0,0,0-0.1c0,0,0,0,0,0c0,0,0,0,0-0.1
		c0,0,0,0,0,0c0,0,0,0,0-0.1c0,0,0,0,0-0.1c0,0,0,0,0-0.1c0,0,0,0,0-0.1c0,0,0,0,0-0.1c0,0,0,0,0-0.1c0,0,0,0,0-0.1c0,0,0-0.1,0-0.1
		c0,0,0,0,0-0.1c0,0,0-0.1,0-0.1c0,0,0,0,0,0v-1.9l8.8,8l-8.8,7.6v-3.2c0,0,0,0,0,0c0,0,0-0.1,0-0.1c0,0,0,0,0,0c0,0,0,0,0-0.1
		c0,0,0-0.1,0-0.1c0,0,0,0,0,0c0,0,0,0,0,0c0,0,0-0.1,0-0.1c0,0,0,0,0-0.1c0,0,0,0,0-0.1c0,0,0-0.1,0-0.1c0,0,0,0,0,0
		c0,0,0-0.1-0.1-0.1c0,0,0,0,0,0c0,0,0-0.1-0.1-0.1c0,0,0,0,0,0c0,0,0-0.1-0.1-0.1c0,0,0,0,0,0c0,0,0,0-0.1-0.1c0,0,0,0,0,0
		c0,0,0,0-0.1-0.1c0,0,0,0,0,0c0,0,0,0-0.1,0c0,0,0,0,0,0c0,0,0,0-0.1,0c0,0,0,0-0.1,0c0,0-0.1,0-0.1,0c0,0,0,0,0,0c0,0-0.1,0-0.1,0
		c0,0,0,0,0,0c-0.2,0-0.4,0-0.6,0c0,0,0,0,0,0c0,0,0,0,0,0c-4.3,0.9-8.2,3.3-11,6.7c-2.8,3.5-4.4,7.8-4.4,12.3
		c0,1.3,0.1,2.6,0.4,3.8l-3.9-1.3c-0.4-0.1-0.8-0.1-1.2,0.1c-0.4,0.2-0.6,0.5-0.7,0.9l-1,4.8C22.2,58.1,21.8,55.3,21.8,52.4z
		 M59.2,55.2l1.7,8.8c-3.1,3.2-7.5,5.1-12,5.1c-4.1,0-8-1.5-11-4.1l3.5-2.1c0.4-0.1,0.7-0.4,0.8-0.9c0.2-0.6,0-1.2-0.5-1.6
		c-0.2-0.1-0.3-0.2-0.5-0.3L33,57.3c-0.5-1.6-0.7-3.2-0.7-4.9c0-7.2,4.7-13.6,11.4-15.8V41c0,0,0,0,0,0c0,0,0,0.1,0,0.1
		c0,0,0,0,0,0.1c0,0,0,0.1,0,0.1c0,0,0,0,0,0.1c0,0,0,0,0,0.1c0,0,0,0,0,0.1c0,0,0,0,0,0.1c0,0,0,0,0,0.1c0,0,0,0,0,0.1
		c0,0,0,0,0,0.1c0,0,0,0,0,0.1c0,0,0,0,0,0.1c0,0,0,0,0,0c0,0,0,0,0.1,0.1c0,0,0,0,0,0c0,0,0,0,0,0c0,0,0,0,0.1,0.1c0,0,0,0,0,0
		c0,0,0,0,0.1,0.1c0,0,0,0,0.1,0c0,0,0,0,0.1,0c0,0,0,0,0.1,0c0,0,0,0,0.1,0c0,0,0,0,0.1,0c0,0,0.1,0,0.1,0c0,0,0,0,0,0
		c0,0,0.1,0,0.1,0c0,0,0,0,0,0c0,0,0.1,0,0.1,0c0,0,0,0,0,0c0,0,0.1,0,0.1,0c0,0,0,0,0,0c0,0,0,0,0,0c0,0,0.1,0,0.1,0c0,0,0,0,0,0
		c0,0,0.1,0,0.1,0c0,0,0,0,0.1,0c0,0,0.1,0,0.1,0c0,0,0,0,0.1,0c0,0,0,0,0.1,0c0,0,0,0,0.1,0c0,0,0,0,0.1,0c0,0,0,0,0.1,0
		c0,0,0,0,0.1,0c0,0,0,0,0,0c0,0,0,0,0.1,0c0,0,0,0,0,0c0,0,0,0,0,0l6.8-5.9c7.4,1.8,12.8,8.5,12.8,16.2c0,1.2-0.1,2.4-0.4,3.6
		L61.6,54c-0.3-0.3-0.8-0.5-1.3-0.4C59.5,53.7,59,54.5,59.2,55.2z M48.9,79.5c-8.2,0-16.2-3.9-21.3-10.4c0,0,0,0,0,0
		c0,0,0,0-0.1-0.1c0,0,0,0,0,0c0,0,0,0-0.1-0.1c0,0,0,0,0,0c0,0,0,0-0.1,0c0,0,0,0-0.1,0c0,0,0,0-0.1,0c0,0,0,0-0.1,0c0,0,0,0-0.1,0
		c0,0,0,0-0.1,0c0,0,0,0-0.1,0c0,0,0,0-0.1,0c0,0,0,0-0.1,0c0,0,0,0-0.1,0c0,0,0,0-0.1,0c0,0,0,0-0.1,0c0,0,0,0-0.1,0c0,0,0,0-0.1,0
		c0,0,0,0-0.1,0c0,0,0,0-0.1,0c0,0,0,0-0.1,0c0,0,0,0-0.1,0c0,0,0,0-0.1,0c0,0,0,0-0.1,0c0,0,0,0-0.1,0c0,0-0.1,0-0.1,0
		c0,0,0,0-0.1,0c0,0-0.1,0-0.1,0c0,0,0,0,0,0l-1.7,1l2.5-11.6l11,3.8l-2.6,1.5c0,0,0,0,0,0c0,0,0,0,0,0c0,0-0.1,0-0.1,0.1
		c0,0,0,0,0,0c0,0-0.1,0-0.1,0.1c0,0,0,0,0,0c0,0,0,0,0,0c0,0,0,0-0.1,0.1c0,0,0,0,0,0.1c0,0,0,0,0,0c0,0,0,0.1-0.1,0.1c0,0,0,0,0,0
		c-0.3,0.5-0.3,1.2,0.2,1.7c3.7,4,8.9,6.3,14.3,6.3c0,0,0,0,0,0c4.6,0,9.1-1.7,12.6-4.6l0.8,4c0.1,0.4,0.3,0.7,0.7,0.9
		c0.2,0.1,0.5,0.2,0.7,0.2c0.1,0,0.3,0,0.4-0.1l4.6-1.5C63.6,76.3,56.5,79.5,48.9,79.5z M64.7,69.2l-2.2-11.4l2.8,1.6
		c0.2,0.1,0.5,0.2,0.7,0.2c0.5,0,1-0.3,1.2-0.7c0.1-0.2,0.2-0.4,0.2-0.6c0.6-1.9,0.9-3.9,0.9-5.9c0-8.4-5.4-15.7-13.1-18.4l3.1-2.6
		c0.3-0.3,0.5-0.6,0.5-1.1c0-0.4-0.2-0.8-0.5-1.1L54.8,26C67,28.7,75.9,39.6,75.9,52.4c0,3.6-0.7,7.2-2.1,10.5c0,0,0,0.1,0,0.1
		c0,0,0,0,0,0c-0.2,0.7,0.1,1.5,0.8,1.7c0,0,0,0,0,0l1.4,0.8L64.7,69.2z"/>
	<path class="st0" d="M32,36.7c3-3.8,7.3-5.8,12-6.5c0.8-0.1,1.2-1.1,1-1.7c-0.2-0.8-1-1.1-1.7-1c-5.1,0.7-10.1,3.1-13.3,7.2
		c-0.5,0.6-0.6,1.4,0,2C30.5,37.2,31.5,37.3,32,36.7z"/>
	<path class="st2" d="M72,46.2c-0.3-0.7-1-1.2-1.7-1c-0.7,0.2-1.3,1-1,1.7c1.6,4.4,1.1,9.1-0.7,13.3c-0.3,0.7-0.2,1.5,0.5,1.9
		c0.6,0.4,1.6,0.2,1.9-0.5C73.2,56.9,73.9,51.3,72,46.2z"/>
	<path class="st1" d="M42.2,73.6c-4.8-0.7-8.7-3.4-11.7-7.1c-0.5-0.6-1.5-0.5-2,0c-0.6,0.6-0.5,1.4,0,2c3.2,4.1,7.7,7.2,12.9,7.9
		c0.8,0.1,1.5-0.2,1.7-1C43.4,74.7,43,73.7,42.2,73.6z"/>
</g>
</svg>
