<?xml version="1.0" encoding="utf-8"?>
<!-- Generator: Adobe Illustrator 24.0.1, SVG Export Plug-In . SVG Version: 6.00 Build 0)  -->
<svg version="1.1" id="Layer_1" xmlns="http://www.w3.org/2000/svg" xmlns:xlink="http://www.w3.org/1999/xlink" x="0px" y="0px"
	 viewBox="0 0 100 100" style="enable-background:new 0 0 100 100;" xml:space="preserve">
<style type="text/css">
	.st0{fill:#A6325C;}
	.st1{fill:#FF912B;}
	.st2{fill:#40BED3;}
	.st3{fill:#213B4F;}
	.st4{fill-rule:evenodd;clip-rule:evenodd;fill:#FF912B;}
	.st5{fill:#231F20;}
	.st6{fill:none;}
	.st7{fill:#E68429;}
	.st8{fill:#CC8035;}
	.st9{fill:#DBE0E3;}
	.st10{fill:#BCC4CA;}
	.st11{fill:#FFFFFF;}
	.st12{fill:#282D33;}
	.st13{fill:#E3E3E3;}
</style>
<g id="Icon4">
	<path class="st3" d="M71.1,63H57.5c-0.9,0-1.7-0.7-1.7-1.7c0-0.9,0.7-1.7,1.7-1.7h13.6c5.8,0,10.5-4.7,10.5-10.6
		c0-5.5-4.2-10.1-9.7-10.6c-0.8-0.1-1.5-0.7-1.5-1.5c-0.4-6.4-5.8-11.4-12.3-11.4c-1.8,0-3.5,0.4-5.2,1.1c-0.6,0.3-1.2,0.2-1.7-0.2
		c-2.7-2.3-6.2-3.6-9.8-3.6c-8.3,0-14.9,6.5-15,14.8c0,0.7-0.5,1.3-1.1,1.5c-4.2,1.5-7,5.5-7,9.9c0,5.8,4.8,10.6,10.6,10.6h13.5
		c0.9,0,1.7,0.7,1.7,1.7c0,0.9-0.7,1.7-1.7,1.7H28.9C21.3,63,15,56.8,15,49.1c0-5.5,3.2-10.4,8.2-12.6c0.7-9.6,8.6-16.9,18.3-16.9
		c4,0,7.9,1.3,11.1,3.7c1.8-0.7,3.7-1,5.6-1c7.7,0,14.3,5.7,15.4,13.2C80.2,36.7,85,42.3,85,49.1C85,56.8,78.8,63,71.1,63z"/>
	<path class="st2" d="M71.5,72.2H56.4c-0.6-2.3-2.4-4.1-4.7-4.7V53c0-0.9-0.7-1.7-1.7-1.7c-0.9,0-1.7,0.7-1.7,1.7v14.6
		c-2.3,0.6-4.1,2.4-4.7,4.7H28.5c-0.9,0-1.7,0.7-1.7,1.7s0.7,1.7,1.7,1.7h15.2c0.7,2.8,3.3,4.9,6.3,4.9c3,0,5.6-2.1,6.3-4.9h15.2
		c0.9,0,1.7-0.7,1.7-1.7S72.4,72.2,71.5,72.2z M50,77.1c-1.7,0-3.2-1.5-3.2-3.2c0-1.7,1.5-3.2,3.2-3.2c1.7,0,3.2,1.5,3.2,3.2
		C53.3,75.6,51.8,77.1,50,77.1z"/>
</g>
</svg>
