<?xml version="1.0" encoding="utf-8"?>
<!-- Generator: Adobe Illustrator 23.0.1, SVG Export Plug-In . SVG Version: 6.00 Build 0)  -->
<svg version="1.1" xmlns="http://www.w3.org/2000/svg" xmlns:xlink="http://www.w3.org/1999/xlink" x="0px" y="0px"
	 viewBox="0 0 200 40" style="enable-background:new 0 0 200 40;" xml:space="preserve">
<style type="text/css">
	.st0{display:none;}
	.st1{fill:#FFFFFF;}
</style>
<g id="Layer_2" class="st0">
	
		<image style="display:inline;overflow:visible;" width="1500" height="1600" xlink:href="../../../../Desktop/stock-vector-modern-flat-line-vector-illustration-icon-design-concept-icon-for-mobile-and-web-graphics-flat-499604125.jpg"  transform="matrix(4.764682e-02 0 0 4.764682e-02 -71.4702 -8.4312)">
	</image>
</g>
<g id="Layer_1">
	<g>
		<path class="st1" d="M49.6,17.9c-2.5,0-5-0.9-6.9-2.6l2.1-2.5c1.5,1.2,3,2,4.8,2c1.5,0,2.3-0.6,2.3-1.5v0c0-0.9-0.6-1.4-3.3-2.1
			c-3.3-0.8-5.4-1.7-5.4-5V6.1c0-3,2.4-4.9,5.7-4.9c2.4,0,4.4,0.7,6,2.1L53.2,6c-1.4-1-2.9-1.6-4.2-1.6S46.8,5,46.8,5.8v0.1
			c0,1.1,0.7,1.4,3.5,2.1c3.3,0.9,5.2,2,5.2,4.9v0.1C55.5,16.1,53.1,17.9,49.6,17.9z"/>
		<path class="st1" d="M57.2,17.7V1.4h12.3v3.2h-8.7v3.3h7.7v3.2h-7.7v3.4h8.8v3.2L57.2,17.7L57.2,17.7z"/>
		<path class="st1" d="M79.6,18c-4.8,0-8.3-3.7-8.3-8.4V9.6c0-4.6,3.5-8.4,8.5-8.4c3.1,0,4.9,1,6.4,2.5l-2.3,2.6
			c-1.2-1.1-2.5-1.8-4.2-1.8C77,4.5,75,6.7,75,9.5v0.1c0,2.8,1.9,5.1,4.7,5.1c1.9,0,3-0.7,4.3-1.9l2.3,2.3
			C84.6,16.9,82.7,18,79.6,18z"/>
		<path class="st1" d="M94.7,18c-4.4,0-7-2.4-7-7.2V1.4h3.6v9.2c0,2.6,1.3,4,3.5,4c2.2,0,3.5-1.3,3.5-3.9V1.4h3.6v9.2
			C101.8,15.5,99.1,18,94.7,18z"/>
		<path class="st1" d="M113.9,17.7l-3.5-5.2h-2.8v5.2H104V1.4h7.4c3.8,0,6.1,2,6.1,5.4v0.1c0,2.6-1.4,4.3-3.5,5l4,5.8L113.9,17.7
			L113.9,17.7z M114,7c0-1.5-1.1-2.3-2.8-2.3h-3.6v4.7h3.6C113,9.3,114,8.4,114,7L114,7z"/>
		<path class="st1" d="M119.9,17.7V1.4h12.3v3.2h-8.7v3.3h7.7v3.2h-7.7v3.4h8.8v3.2L119.9,17.7L119.9,17.7z"/>
		<path class="st1" d="M147.2,17.7h-6.3V1.4h6.3c5.1,0,8.6,3.5,8.6,8.1v0.1C155.8,14.1,152.3,17.7,147.2,17.7z M152.1,9.6
			c0-2.9-2-4.9-4.9-4.9h-2.8v9.8h2.8C150.1,14.5,152.1,12.5,152.1,9.6L152.1,9.6z"/>
		<path class="st1" d="M169.3,17.7l-1.5-3.6H161l-1.5,3.6h-3.6l7-16.4h3.3l7,16.4H169.3z M164.4,5.6l-2.2,5.3h4.3L164.4,5.6z"/>
		<path class="st1" d="M178.4,4.7v13h-3.6v-13h-4.9V1.4h13.5v3.3H178.4z"/>
		<path class="st1" d="M194.7,17.7l-1.5-3.6h-6.9l-1.5,3.6h-3.6l7-16.4h3.3l7,16.4H194.7z M189.8,5.6l-2.2,5.3h4.3L189.8,5.6z"/>
		<path class="st1" d="M51.4,39.3c-4.8,0-8.3-3.7-8.3-8.4v0c0-4.6,3.5-8.4,8.5-8.4c3.1,0,4.9,1,6.4,2.5l-2.3,2.6
			c-1.2-1.1-2.5-1.8-4.2-1.8c-2.7,0-4.7,2.3-4.7,5.1v0c0,2.8,1.9,5.1,4.7,5.1c1.9,0,3-0.7,4.3-1.9l2.3,2.3
			C56.4,38.2,54.5,39.3,51.4,39.3z"/>
		<path class="st1" d="M67.3,39.3c-5,0-8.6-3.7-8.6-8.4v0c0-4.6,3.7-8.4,8.7-8.4c5,0,8.6,3.7,8.6,8.4v0
			C75.9,35.5,72.3,39.3,67.3,39.3z M72.2,30.9c0-2.8-2-5.1-4.9-5.1c-2.9,0-4.9,2.3-4.9,5.1v0c0,2.8,2,5.1,4.9,5.1
			C70.2,36,72.2,33.7,72.2,30.9C72.2,30.9,72.2,30.9,72.2,30.9z"/>
		<path class="st1" d="M90,39V28.4l-4.6,6.9h-0.1l-4.5-6.9V39h-3.5V22.7h3.9l4.3,6.9l4.3-6.9h3.9V39C93.5,39,90,39,90,39z"/>
		<path class="st1" d="M108.8,39V28.4l-4.6,6.9h-0.1l-4.5-6.9V39h-3.5V22.7h3.9l4.3,6.9l4.3-6.9h3.9V39C112.3,39,108.8,39,108.8,39z
			"/>
		<path class="st1" d="M123,39.3c-5,0-8.6-3.7-8.6-8.4v0c0-4.6,3.7-8.4,8.7-8.4c5,0,8.6,3.7,8.6,8.4v0C131.6,35.5,128,39.3,123,39.3
			z M127.9,30.9c0-2.8-2-5.1-4.9-5.1s-4.9,2.3-4.9,5.1v0c0,2.8,2,5.1,4.9,5.1S127.9,33.7,127.9,30.9L127.9,30.9z"/>
		<path class="st1" d="M144.8,39l-7.9-10.3V39h-3.5V22.7h3.3l7.6,10v-10h3.5V39C147.8,39,144.8,39,144.8,39z"/>
		<path class="st1" d="M156.4,39.2c-2.5,0-4.9-0.9-6.9-2.6l2.1-2.5c1.5,1.2,3,2,4.9,2c1.5,0,2.4-0.6,2.4-1.5v0
			c0-0.9-0.6-1.4-3.3-2.1c-3.3-0.8-5.4-1.7-5.4-5v-0.1c0-3,2.4-4.9,5.7-4.9c2.4,0,4.4,0.7,6,2.1l-1.9,2.7c-1.4-1-2.9-1.6-4.2-1.6
			s-2.1,0.6-2.1,1.4v0c0,1.1,0.7,1.4,3.5,2.1c3.3,0.9,5.2,2,5.2,4.9v0C162.3,37.4,159.9,39.2,156.4,39.2z"/>
	</g>
	<g>
		<circle class="st1" cx="2" cy="18.8" r="0.9"/>
		<circle class="st1" cx="7.1" cy="18.8" r="0.9"/>
		<circle class="st1" cx="30.8" cy="18.8" r="0.9"/>
		<circle class="st1" cx="35.9" cy="18.8" r="0.9"/>
		<g>
			<path class="st1" d="M13.6,8.9L13,7.8c-3.3,1.8-5.7,4.9-6.4,8.7l1.2,0.2C8.5,13.3,10.6,10.5,13.6,8.9z"/>
			<path class="st1" d="M21.4,6.6c-0.2-1.2-1.2-2.1-2.4-2.1c-1.4,0-2.5,1.1-2.5,2.5s1.1,2.5,2.5,2.5c1,0,1.9-0.7,2.3-1.6
				c4.5,0.9,8,4.5,8.8,9l1.2-0.2C30.3,11.5,26.4,7.5,21.4,6.6z M18.9,8.1c-0.7,0-1.2-0.6-1.2-1.2c0-0.7,0.6-1.2,1.2-1.2
				s1.2,0.6,1.2,1.2C20.2,7.6,19.6,8.1,18.9,8.1z"/>
		</g>
		<g>
			<path class="st1" d="M18.9,1.2c-8.6,0-15.7,6.2-17.3,14.3l1.2,0.2C4.3,8.2,10.9,2.4,18.9,2.4c8,0,14.7,5.8,16.1,13.4l1.2-0.2
				C34.7,7.4,27.5,1.2,18.9,1.2z"/>
		</g>
		<g>
			<path class="st1" d="M18.9,33.3c-1.1,0-2,0.7-2.3,1.7C9.7,34,4.2,28.7,2.9,21.9l-1.2,0.2c1.4,7.3,7.4,13.1,14.8,14.1
				c0.2,1.1,1.2,2,2.4,2c1.4,0,2.5-1.1,2.5-2.5S20.3,33.3,18.9,33.3z M18.9,37c-0.7,0-1.2-0.6-1.2-1.2c0-0.7,0.6-1.2,1.2-1.2
				s1.2,0.6,1.2,1.2C20.2,36.4,19.6,37,18.9,37z"/>
		</g>
		<g>
			<path class="st1" d="M24.5,34.2c0.1,0.4,0.3,0.8,0.4,1.1c5.7-2.1,10-7,11.2-13.1L35,22C33.9,27.6,29.8,32.3,24.5,34.2z"/>
			<path class="st1" d="M18.9,30.1c-5.5,0-10.1-4-11.1-9.2l-1.2,0.2c1.1,5.8,6.2,10.1,12.2,10.1c6,0,11.1-4.3,12.2-10.1L30,21
				C29,26.2,24.4,30.1,18.9,30.1z"/>
		</g>
	</g>
</g>
</svg>
