<?xml version="1.0" encoding="utf-8"?>
<!-- Generator: Adobe Illustrator 23.0.1, SVG Export Plug-In . SVG Version: 6.00 Build 0)  -->
<svg version="1.1" id="Layer_1" xmlns="http://www.w3.org/2000/svg" xmlns:xlink="http://www.w3.org/1999/xlink" x="0px" y="0px"
	 viewBox="0 0 48 48" style="enable-background:new 0 0 48 48;" xml:space="preserve">
<style type="text/css">
	.st0{fill:#E96188;}
</style>
<g>
	<path class="st0" d="M35.15,10.72H23.52c-0.46,0-0.84,0.38-0.84,0.84c0,0.46,0.38,0.84,0.84,0.84h11.62c0.46,0,0.84-0.38,0.84-0.84
		C35.99,11.1,35.61,10.72,35.15,10.72z"/>
	<path class="st0" d="M31.63,17.78c0-0.46-0.38-0.84-0.84-0.84h-7.27c-0.46,0-0.84,0.38-0.84,0.84c0,0.46,0.38,0.84,0.84,0.84h7.27
		C31.26,18.62,31.63,18.24,31.63,17.78z"/>
	<path class="st0" d="M20.32,18.62c0.46,0,0.84-0.38,0.84-0.84v-6.22c0-0.46-0.38-0.84-0.84-0.84h-7.46c-0.46,0-0.84,0.38-0.84,0.84
		v6.22c0,0.46,0.38,0.84,0.84,0.84H20.32z M13.69,12.4h5.78v4.54h-5.78V12.4z"/>
	<path class="st0" d="M13.54,30.24c-0.69,0-1.26,0.57-1.26,1.26V36c0,0.69,0.56,1.26,1.26,1.26h2.45c0.69,0,1.26-0.57,1.26-1.26
		v-4.5c0-0.69-0.56-1.26-1.26-1.26H13.54z M15.56,35.58h-1.61v-3.66h1.61V35.58z"/>
	<path class="st0" d="M18.44,26.16V36c0,0.69,0.56,1.26,1.26,1.26h2.45c0.69,0,1.26-0.57,1.26-1.26v-9.84
		c0-0.69-0.56-1.26-1.26-1.26H19.7C19,24.9,18.44,25.47,18.44,26.16z M20.12,26.58h1.61v9h-1.61V26.58z"/>
	<path class="st0" d="M25.86,27.37c-0.69,0-1.26,0.57-1.26,1.26V36c0,0.69,0.57,1.26,1.26,1.26h2.45c0.69,0,1.26-0.57,1.26-1.26
		v-7.37c0-0.69-0.57-1.26-1.26-1.26H25.86z M27.88,35.58h-1.61v-6.53h1.61V35.58z"/>
	<path class="st0" d="M34.46,22.03h-2.45c-0.69,0-1.26,0.57-1.26,1.26V36c0,0.69,0.57,1.26,1.26,1.26h2.45
		c0.69,0,1.26-0.57,1.26-1.26V23.29C35.72,22.59,35.16,22.03,34.46,22.03z M34.04,35.58h-1.61V23.71h1.61V35.58z"/>
	<path class="st0" d="M35.15,13.83H23.52c-0.46,0-0.84,0.38-0.84,0.84c0,0.46,0.38,0.84,0.84,0.84h11.62c0.46,0,0.84-0.38,0.84-0.84
		C35.99,14.21,35.61,13.83,35.15,13.83z"/>
	<path class="st0" d="M34.88,39.02H13.12c-0.46,0-0.84,0.38-0.84,0.84c0,0.46,0.38,0.84,0.84,0.84h21.77c0.46,0,0.84-0.38,0.84-0.84
		C35.72,39.39,35.35,39.02,34.88,39.02z"/>
	<path class="st0" d="M38.7,0.77H9.3c-2.39,0-4.34,1.95-4.34,4.34v37.77c0,2.39,1.95,4.34,4.34,4.34H38.7c2.11,0,3.91-1.5,4.28-3.58
		c0.01-0.05,0.01-0.1,0.01-0.14l0.05-21.79V5.11C43.04,2.72,41.09,0.77,38.7,0.77z M19.79,2.45h8.43v2.67h-8.43V2.45z M41.36,21.72
		l-0.05,21.7c-0.25,1.24-1.34,2.13-2.61,2.13H9.3c-1.47,0-2.66-1.19-2.66-2.66V5.11c0-1.47,1.19-2.66,2.66-2.66h8.8v3.51
		c0,0.46,0.38,0.84,0.84,0.84h10.11c0.46,0,0.84-0.38,0.84-0.84V2.45h8.8c1.47,0,2.66,1.19,2.66,2.66V21.72z"/>
</g>
</svg>
