<?xml version="1.0" encoding="utf-8"?>
<!-- Generator: Adobe Illustrator 23.0.4, SVG Export Plug-In . SVG Version: 6.00 Build 0)  -->
<svg version="1.1" id="Layer_1" xmlns="http://www.w3.org/2000/svg" xmlns:xlink="http://www.w3.org/1999/xlink" x="0px" y="0px"
	 viewBox="0 0 48 48" style="enable-background:new 0 0 48 48;" xml:space="preserve">
<style type="text/css">
	.st0{fill:#495057;}
	.st1{fill:#343B43;}
	.st2{fill:#FFFFFF;}
	.st3{fill:#00A99D;}
	.st4{fill:#00BDB1;}
</style>
<circle class="st0" cx="24" cy="24" r="24"/>
<path class="st1" d="M34,15.6L24,11l-10,4.7v8.6c0,3.7,1.4,7.1,3.6,9.7l1.5,1.5L30.7,47c8.4-2.4,14.8-9.3,16.7-17.9L34,15.6z"/>
<g>
	<g>
		<path class="st2" d="M24,11l-10,4.7v8.6c0,6.5,4.2,12,10,14c5.8-2,10-7.5,10-14v-8.6L24,11z"/>
		<path class="st3" d="M24,13.1v23.1c4.9-2,8.1-6.7,8.1-12v-7.3L24,13.1z"/>
		<path class="st4" d="M15.9,16.9v7.3c0,5.3,3.2,10,8.1,12V13.1L15.9,16.9z"/>
	</g>
	<g>
		<ellipse transform="matrix(6.328350e-03 -1 1 6.328350e-03 -0.53 48.2275)" class="st2" cx="24" cy="24.4" rx="5" ry="5"/>
		<polygon class="st1" points="23.1,27 20.9,24.8 21.6,24 23.1,25.5 26.4,22.2 27.1,22.9 		"/>
	</g>
</g>
</svg>
