<?xml version="1.0" encoding="utf-8"?>
<!-- Generator: Adobe Illustrator 23.0.1, SVG Export Plug-In . SVG Version: 6.00 Build 0)  -->
<svg version="1.1" id="Layer_1" xmlns="http://www.w3.org/2000/svg" xmlns:xlink="http://www.w3.org/1999/xlink" x="0px" y="0px"
	 viewBox="0 0 48 48" style="enable-background:new 0 0 48 48;" xml:space="preserve">
<style type="text/css">
	.st0{fill:#E96188;}
</style>
<g>
	<path class="st0" d="M13.47,23.69c-0.71,0-1.28,0.57-1.28,1.28v4.71c0,0.71,0.57,1.28,1.28,1.28h2.28c0.71,0,1.28-0.57,1.28-1.28
		v-4.71c0-0.71-0.57-1.28-1.28-1.28H13.47z M15.33,29.26H13.9V25.4h1.43V29.26z"/>
	<path class="st0" d="M19.35,18.12c-0.71,0-1.28,0.57-1.28,1.28v10.28c0,0.71,0.57,1.28,1.28,1.28h2.28c0.71,0,1.28-0.57,1.28-1.28
		V19.4c0-0.71-0.57-1.28-1.28-1.28H19.35z M21.21,29.26h-1.43v-9.43h1.43V29.26z"/>
	<path class="st0" d="M25.23,30.96h2.28c0.71,0,1.28-0.57,1.28-1.28v-7.71c0-0.71-0.57-1.28-1.28-1.28h-2.28
		c-0.71,0-1.28,0.57-1.28,1.28v7.71C23.95,30.39,24.52,30.96,25.23,30.96z M25.66,22.4h1.43v6.86h-1.43V22.4z"/>
	<path class="st0" d="M33.39,30.96c0.71,0,1.28-0.57,1.28-1.28V16.41c0-0.71-0.57-1.28-1.28-1.28h-2.28c-0.71,0-1.28,0.57-1.28,1.28
		v13.28c0,0.71,0.57,1.28,1.28,1.28H33.39z M31.53,16.83h1.43v12.42h-1.43V16.83z"/>
	<path class="st0" d="M4.89,23.74C4.89,13.2,13.46,4.63,24,4.63c3.55,0,6.91,0.83,9.69,2.35l-4.56,0.69
		c-0.47,0.07-0.79,0.51-0.72,0.97c0.06,0.42,0.43,0.73,0.84,0.73c0.04,0,0.09,0,0.13-0.01l6.86-1.03c0.27-0.04,0.51-0.21,0.63-0.45
		c0.13-0.24,0.13-0.53,0-0.78l-3.19-6.24c-0.21-0.42-0.73-0.59-1.15-0.37c-0.42,0.21-0.59,0.73-0.37,1.15l1.82,3.57
		C31.06,3.72,27.61,2.92,24,2.92c-11.48,0-20.81,9.34-20.81,20.81c0,4.36,1.33,8.53,3.85,12.06c0.17,0.23,0.43,0.36,0.7,0.36
		c0.17,0,0.34-0.05,0.49-0.16c0.38-0.27,0.47-0.81,0.2-1.19C6.12,31.56,4.89,27.74,4.89,23.74z"/>
	<path class="st0" d="M40.66,11.26c-0.28-0.38-0.82-0.45-1.19-0.17c-0.38,0.28-0.45,0.82-0.17,1.19c2.49,3.32,3.81,7.28,3.81,11.45
		c0,10.54-8.57,19.11-19.11,19.11c-3.5,0-6.87-0.88-9.7-2.48l4.92-0.81c0.47-0.08,0.78-0.52,0.7-0.98c-0.08-0.47-0.52-0.78-0.98-0.7
		l-7.09,1.17c0,0,0,0,0,0l-0.01,0c-0.01,0-0.02,0.01-0.02,0.01c-0.05,0.01-0.1,0.02-0.15,0.04c-0.02,0.01-0.03,0.02-0.05,0.02
		c-0.04,0.02-0.08,0.04-0.11,0.06c-0.02,0.01-0.03,0.02-0.05,0.04c-0.03,0.03-0.06,0.05-0.09,0.09c-0.02,0.02-0.03,0.03-0.04,0.05
		c-0.01,0.01-0.01,0.01-0.02,0.02c-0.02,0.03-0.04,0.07-0.06,0.1c-0.01,0.01-0.01,0.02-0.02,0.03c0,0,0,0,0,0.01
		c-0.03,0.06-0.05,0.12-0.06,0.18c0,0.01,0,0.02,0,0.03c-0.01,0.05-0.02,0.1-0.02,0.15c0,0.02,0,0.04,0,0.06
		c0,0.04,0.01,0.08,0.02,0.12c0,0.02,0.01,0.04,0.02,0.06c0.01,0.04,0.03,0.08,0.05,0.13c0.01,0.01,0.01,0.02,0.01,0.04l3.63,6.87
		c0.15,0.29,0.45,0.46,0.76,0.46c0.13,0,0.27-0.03,0.4-0.1c0.42-0.22,0.58-0.74,0.36-1.15l-2.16-4.1c2.93,1.49,6.32,2.29,9.81,2.29
		c11.48,0,20.81-9.34,20.81-20.81C44.81,19.2,43.38,14.88,40.66,11.26z"/>
	<path class="st0" d="M23.15,39.95c0,0.47,0.38,0.85,0.85,0.85c9.41,0,17.07-7.66,17.07-17.07c0-4.43-1.69-8.62-4.75-11.81
		c-0.33-0.34-0.87-0.35-1.21-0.03c-0.34,0.33-0.35,0.87-0.03,1.21c2.76,2.87,4.27,6.65,4.27,10.63c0,8.47-6.89,15.36-15.36,15.36
		C23.53,39.1,23.15,39.48,23.15,39.95z"/>
	<path class="st0" d="M11.99,34.66c0.36-0.3,0.42-0.84,0.12-1.2c-2.24-2.73-3.47-6.19-3.47-9.72c0-8.47,6.89-15.36,15.36-15.36
		c0.47,0,0.85-0.38,0.85-0.85S24.47,6.67,24,6.67c-9.41,0-17.07,7.66-17.07,17.07c0,3.93,1.37,7.77,3.85,10.81
		c0.17,0.21,0.41,0.31,0.66,0.31C11.64,34.86,11.83,34.79,11.99,34.66z"/>
</g>
</svg>
