<?xml version="1.0" encoding="utf-8"?>
<!-- Generator: Adobe Illustrator 23.0.4, SVG Export Plug-In . SVG Version: 6.00 Build 0)  -->
<svg version="1.1" id="Layer_1" xmlns="http://www.w3.org/2000/svg" xmlns:xlink="http://www.w3.org/1999/xlink" x="0px" y="0px"
	 viewBox="0 0 48 48" style="enable-background:new 0 0 48 48;" xml:space="preserve">
<style type="text/css">
	.st0{fill:#FECE66;}
	.st1{fill:#F5B540;}
	.st2{fill:#495057;}
	.st3{fill:#343B43;}
	.st4{fill:#FD8369;}
	.st5{fill:#FFFFFF;}
	.st6{fill:#E24F3B;}
</style>
<circle class="st0" cx="24" cy="24" r="24"/>
<path class="st1" d="M47.5,29.1L34.9,16.6l-3.5-3.5l-1.7-1l-1.6,1.8L25,10.8h-2l-0.6,2.9h0c-0.7,0.1-1.4,0.3-2,0.5l-2.2-2.2l0,0
	l-1.7,1l0.9,2.8c-0.6,0.5-1.1,1-1.6,1.6l-2.8-0.9l-1,1.7l0,0l2.1,2.1c-0.2,0.6-0.4,1.3-0.5,2L10.8,23v2l3.1,3.1l-1.8,1.6l1,1.7
	l3.5,3.5l0,0l12.5,12.5C38.3,45.5,45.5,38.3,47.5,29.1z"/>
<g>
	<g>
		<g>
			<polygon class="st2" points="25,10.8 23,10.8 22.4,13.7 25.6,13.7 			"/>
			<polygon class="st2" points="18.3,12.1 16.6,13.1 17.5,15.9 20.2,14.3 			"/>
			<polygon class="st2" points="13.1,16.6 12.1,18.3 14.3,20.2 15.9,17.5 			"/>
			<polygon class="st2" points="10.8,23 10.8,25 13.7,25.6 13.7,22.4 			"/>
			<polygon class="st2" points="12.1,29.7 13.1,31.4 15.9,30.5 14.3,27.8 			"/>
			<polygon class="st2" points="16.6,34.9 18.3,35.9 20.2,33.7 17.5,32.1 			"/>
			<polygon class="st2" points="23,37.2 25,37.2 25.6,34.3 22.4,34.3 			"/>
			<polygon class="st2" points="29.7,35.9 31.4,34.9 30.5,32.1 27.8,33.7 			"/>
			<polygon class="st2" points="34.9,31.4 35.9,29.7 33.7,27.8 32.1,30.5 			"/>
			<polygon class="st2" points="37.2,25 37.2,23 34.3,22.4 34.3,25.6 			"/>
			<polygon class="st2" points="35.9,18.3 34.9,16.6 32.1,17.5 33.7,20.2 			"/>
			<polygon class="st2" points="31.4,13.1 29.7,12.1 27.8,14.3 30.5,15.9 			"/>
		</g>
		<path class="st3" d="M24,13.6c-5.7,0-10.4,4.6-10.4,10.4c0,5.7,4.6,10.4,10.4,10.4c5.7,0,10.4-4.6,10.4-10.4
			C34.4,18.3,29.7,13.6,24,13.6z M24,31.9c-4.4,0-7.9-3.5-7.9-7.9c0-4.4,3.5-7.9,7.9-7.9c4.4,0,7.9,3.5,7.9,7.9
			C31.9,28.4,28.4,31.9,24,31.9z"/>
	</g>
	<g>
		<path class="st3" d="M28,28c-1,1-2.4,1.7-4,1.7c-3.1,0-5.7-2.5-5.7-5.7c0-2.4,1.4-4.4,3.5-5.2L24,24L28,28z"/>
		<path class="st4" d="M29.7,24H24v-5.7C27.1,18.3,29.7,20.9,29.7,24z"/>
		<path class="st5" d="M29.7,24c0,1.6-0.6,3-1.7,4l-4-4H29.7z"/>
		<path class="st6" d="M24,18.3V24l-2.2-5.2C22.5,18.5,23.2,18.3,24,18.3z"/>
	</g>
</g>
</svg>
