<?xml version="1.0" encoding="utf-8"?>
<!-- Generator: Adobe Illustrator 23.0.4, SVG Export Plug-In . SVG Version: 6.00 Build 0)  -->
<svg version="1.1" id="Layer_1" xmlns="http://www.w3.org/2000/svg" xmlns:xlink="http://www.w3.org/1999/xlink" x="0px" y="0px"
	 viewBox="0 0 48 48" style="enable-background:new 0 0 48 48;" xml:space="preserve">
<style type="text/css">
	.st0{fill:#8FDEF6;}
	.st1{fill:#70C9E9;}
	.st2{fill:#FFFFFF;}
	.st3{fill:#343B43;}
	.st4{fill:#D9D8D7;}
	.st5{fill:#FECE66;}
	.st6{fill:#EA6552;}
</style>
<circle class="st0" cx="24" cy="24" r="24"/>
<path class="st1" d="M47.7,24.3l-11-11c-0.1-0.1-0.2-0.1-0.3-0.1H20H11c-0.1,0-0.2,0-0.3,0.1c-0.1,0.1-0.1,0.2-0.1,0.3V15
	c0,0.1,0,0.2,0.1,0.3l0.6,0.6v16.5H11c-0.1,0-0.2,0-0.3,0.1c-0.1,0.1-0.1,0.2-0.1,0.3V33c0,0.1,0,0.2,0.1,0.3l14.6,14.6
	C37.7,47.1,47.6,36.9,47.7,24.3z"/>
<g>
	<g>
		<rect x="11.3" y="15.4" class="st2" width="24.8" height="17"/>
		<path class="st3" d="M11,13.2c-0.1,0-0.2,0-0.3,0.1c-0.1,0.1-0.1,0.2-0.1,0.3V15c0,0.1,0,0.2,0.1,0.3c0.1,0.1,0.2,0.1,0.3,0.1
			h25.4c0.1,0,0.2,0,0.3-0.1c0.1-0.1,0.1-0.2,0.1-0.3v-1.3c0-0.1,0-0.2-0.1-0.3c-0.1-0.1-0.2-0.1-0.3-0.1H11z"/>
		<path class="st3" d="M36.9,32.9c0-0.1,0-0.2-0.1-0.3c-0.1-0.1-0.2-0.1-0.3-0.1H11c-0.1,0-0.2,0-0.3,0.1c-0.1,0.1-0.1,0.2-0.1,0.3
			V33c0,0.1,0,0.2,0.1,0.3c0.1,0.1,0.2,0.1,0.3,0.1h25.4c0.1,0,0.2,0,0.3-0.1c0.1-0.1,0.1-0.2,0.1-0.3V32.9z"/>
	</g>
	<g>
		<g>
			<path class="st4" d="M22.6,23.9c0,0.9-0.4,1.8-1,2.4l1.7,1.7c1.1-1.1,1.7-2.5,1.7-4.2H22.6z"/>
			<path class="st3" d="M21.6,26.4c-0.6,0.6-1.5,1-2.4,1c-1.9,0-3.4-1.5-3.4-3.4c0-1.4,0.9-2.7,2.1-3.2l-0.9-2.3
				c-2.1,0.9-3.6,3-3.6,5.4c0,3.2,2.6,5.9,5.9,5.9c1.6,0,3.1-0.7,4.2-1.7L21.6,26.4z"/>
			<path class="st5" d="M19.2,20.5v-2.5c-0.8,0-1.6,0.2-2.3,0.4l0.9,2.3C18.2,20.6,18.7,20.5,19.2,20.5z"/>
			<path class="st6" d="M19.2,20.5c1.9,0,3.4,1.5,3.4,3.4l0,0H25c0-3.2-2.6-5.9-5.9-5.9L19.2,20.5L19.2,20.5z"/>
		</g>
		<g>
			<rect x="26.9" y="18.1" class="st3" width="1" height="1"/>
			<rect x="29" y="18.1" class="st6" width="1" height="1"/>
			<rect x="31.1" y="18.1" class="st4" width="1" height="1"/>
			<rect x="33.1" y="18.1" class="st5" width="1" height="1"/>
		</g>
		<g>
			<rect x="26.9" y="28.8" class="st4" width="7.3" height="1"/>
			<rect x="26.9" y="26.7" class="st4" width="7.3" height="1"/>
			<rect x="26.9" y="24.6" class="st4" width="7.3" height="1"/>
			<rect x="26.9" y="22.5" class="st4" width="7.3" height="1"/>
		</g>
	</g>
</g>
</svg>
