<?xml version="1.0" encoding="utf-8"?>
<!-- Generator: Adobe Illustrator 23.0.1, SVG Export Plug-In . SVG Version: 6.00 Build 0)  -->
<svg version="1.1" id="Layer_1" xmlns="http://www.w3.org/2000/svg" xmlns:xlink="http://www.w3.org/1999/xlink" x="0px" y="0px"
	 viewBox="0 0 48 48" style="enable-background:new 0 0 48 48;" xml:space="preserve">
<style type="text/css">
	.st0{fill:#E96188;}
</style>
<g>
	<path class="st0" d="M24.43,5.51c-0.26-0.21-0.63-0.21-0.88,0.02c-0.08,0.07-7.64,6.75-13.91,6.31c-0.19-0.01-0.37,0.05-0.5,0.18
		c-0.14,0.13-0.21,0.3-0.21,0.49v15.44c0,3.12,1.22,5.89,3.27,7.4c0.12,0.09,0.26,0.13,0.4,0.13c0.21,0,0.41-0.09,0.54-0.27
		c0.22-0.3,0.16-0.72-0.14-0.94c-1.68-1.24-2.72-3.66-2.72-6.33V13.19C16.05,13.17,22.29,8.33,24,6.9
		c1.78,1.49,8.48,6.67,14.45,6.26c0.37-0.03,0.65-0.35,0.62-0.72c-0.03-0.37-0.34-0.65-0.72-0.62C32.11,12.26,24.52,5.59,24.43,5.51
		z"/>
	<path class="st0" d="M38.4,16.62c-0.37,0-0.67,0.3-0.67,0.67v4.19c0,0.37,0.3,0.67,0.67,0.67s0.67-0.3,0.67-0.67v-4.19
		C39.07,16.92,38.77,16.62,38.4,16.62z"/>
	<path class="st0" d="M38.4,25.92c-0.37,0-0.67,0.3-0.67,0.67v1.35c0,2.66-1.04,5.08-2.72,6.33c-2.4,1.78-9.34,6.37-11.01,7.47
		c-1.03-0.68-4.07-2.69-6.79-4.54c-0.31-0.21-0.72-0.13-0.93,0.18s-0.13,0.72,0.18,0.93c3.33,2.26,7.13,4.77,7.17,4.79
		c0.01,0.01,0.03,0.01,0.04,0.02c0.02,0.01,0.03,0.01,0.05,0.02c0.09,0.04,0.18,0.07,0.28,0.07c0,0,0,0,0,0s0,0,0,0
		c0.1,0,0.19-0.03,0.28-0.07c0.02-0.01,0.03-0.01,0.05-0.02c0.01-0.01,0.03-0.01,0.04-0.02c0.35-0.23,8.68-5.72,11.44-7.76
		c2.05-1.51,3.27-4.28,3.27-7.4v-1.35C39.07,26.22,38.77,25.92,38.4,25.92z"/>
	<path class="st0" d="M42.05,8.58c-0.14-0.13-0.31-0.19-0.5-0.18l-3.42,0.24c-0.12,0.01-0.25,0.01-0.38,0.01
		c-4.06,0-9.43-3.97-11.14-5.48l-2.16-2.03c-0.26-0.24-0.66-0.24-0.92,0L21.4,3.16c-1.73,1.53-7.09,5.49-11.15,5.49
		c-0.13,0-0.25,0-0.38-0.01L6.45,8.4c-0.19-0.01-0.37,0.05-0.5,0.18c-0.14,0.13-0.21,0.3-0.21,0.49v18.86
		c0,4.13,1.71,7.86,4.56,9.97c2.72,2.01,10.67,7.26,11.58,7.86l1.76,1.16c0.11,0.07,0.24,0.11,0.37,0.11s0.26-0.04,0.37-0.11
		l1.77-1.17c0.9-0.59,8.85-5.84,11.56-7.85c2.86-2.11,4.56-5.84,4.56-9.97V9.07C42.27,8.89,42.19,8.71,42.05,8.58z M40.93,27.94
		c0,3.71-1.5,7.04-4.02,8.9c-2.69,1.99-10.61,7.22-11.52,7.82L24,45.56l-1.4-0.92c-0.89-0.59-8.82-5.82-11.5-7.81
		c-2.52-1.86-4.02-5.19-4.02-8.9V9.79l2.7,0.19C9.93,9.99,10.09,10,10.25,10c5.4,0,11.98-5.77,12.06-5.85l1.7-1.6l1.71,1.61
		c0.07,0.06,7.04,6.19,12.51,5.81l2.7-0.19V27.94z"/>
	<path class="st0" d="M22.56,32.3C22.56,32.3,22.56,32.3,22.56,32.3c0.49,0,0.94-0.19,1.29-0.53l9.8-9.8
		c0.34-0.34,0.53-0.8,0.53-1.29c0-0.49-0.19-0.94-0.53-1.29l-2.25-2.25c-0.34-0.34-0.8-0.53-1.29-0.53c-0.49,0-0.94,0.19-1.29,0.53
		l-6.25,6.25l-2.83-2.83c-0.34-0.34-0.8-0.53-1.29-0.53c-0.49,0-0.94,0.19-1.29,0.53l-2.25,2.25c-0.71,0.71-0.71,1.86,0,2.57
		l6.36,6.37C21.62,32.11,22.07,32.3,22.56,32.3z M15.86,23.77l2.25-2.25c0.09-0.09,0.21-0.14,0.34-0.14c0.13,0,0.25,0.05,0.34,0.14
		l2.97,2.97c0.44,0.44,1.17,0.44,1.61,0l6.4-6.4c0.18-0.18,0.49-0.18,0.67,0l2.25,2.25c0.09,0.09,0.14,0.21,0.14,0.34
		c0,0.13-0.05,0.25-0.14,0.34l-9.8,9.8c-0.09,0.09-0.21,0.14-0.34,0.14h0c-0.13,0-0.25-0.05-0.34-0.14l-6.36-6.37
		C15.68,24.26,15.68,23.96,15.86,23.77z"/>
</g>
</svg>
