<?xml version="1.0" encoding="utf-8"?>
<!-- Generator: Adobe Illustrator 24.0.1, SVG Export Plug-In . SVG Version: 6.00 Build 0)  -->
<svg version="1.1" id="Layer_1" xmlns="http://www.w3.org/2000/svg" xmlns:xlink="http://www.w3.org/1999/xlink" x="0px" y="0px"
	 viewBox="0 0 100 100" style="enable-background:new 0 0 100 100;" xml:space="preserve">
<style type="text/css">
	.st0{fill:#A6325C;}
	.st1{fill:#FF912B;}
	.st2{fill:#40BED3;}
	.st3{fill:#213B4F;}
	.st4{fill-rule:evenodd;clip-rule:evenodd;fill:#FF912B;}
	.st5{fill:#231F20;}
	.st6{fill:none;}
	.st7{fill:#E68429;}
	.st8{fill:#CC8035;}
	.st9{fill:#DBE0E3;}
	.st10{fill:#BCC4CA;}
	.st11{fill:#FFFFFF;}
	.st12{fill:#282D33;}
	.st13{fill:#E3E3E3;}
</style>
<g id="Icon9">
	<circle class="st2" cx="56.5" cy="20.1" r="2.2"/>
	<path class="st10" d="M44.4,59.9l-0.2-0.3c0,0,0-0.1-0.1-0.1c-0.9-1.4-1.7-3-2.3-4.6c-0.6-1.7-0.9-3.5-1.1-5.3c0-0.5-0.1-1-0.1-1.5
		c0-0.1,0-0.1,0-0.1v0c0-2.8,0.6-5.5,1.7-8.1c0.6-1.5,1.4-2.9,2.4-4.1c3.6-4.9,9-7.8,15-8.1c-1.1-0.2-2.2-0.3-3.3-0.3
		c-6.3,0-12.1,3-16,8.1c-0.9,1.3-1.7,2.7-2.4,4.1c-1.1,2.6-1.7,5.3-1.7,8.1v0c0,0.1,0,0.1,0,0.1c0,0.5,0,1,0.1,1.5
		c0.1,1.8,0.5,3.6,1.1,5.3c0.6,1.6,1.3,3.2,2.3,4.6c0,0,0,0.1,0.1,0.1l0.2,0.3l-3.2,16l23.5,6.7l0.3-0.9l-19.5-5.6L44.4,59.9z"/>
	<ellipse transform="matrix(0.9853 -0.1707 0.1707 0.9853 -3.8159 4.2717)" class="st0" cx="22.9" cy="24.3" rx="2.2" ry="2.2"/>
	<circle class="st2" cx="56.5" cy="54.2" r="2.2"/>
	<circle class="st11" cx="42.7" cy="37.1" r="4.3"/>
	<circle class="st11" cx="21.3" cy="34.1" r="2.2"/>
	<path class="st1" d="M34.2,39.8c0.2,0.6,0.4,1.3,0.8,1.9l-1.4,3c0.6,0.8,1.4,1.5,2.2,2.2l3-1.4c0.6,0.3,1.2,0.6,1.9,0.8l1.1,3.1
		c0.5,0.1,1,0.1,1.5,0.1c0.5,0,1,0,1.5-0.1l1.1-3.1c0.6-0.2,1.3-0.4,1.9-0.8l3,1.4c0.8-0.6,1.5-1.4,2.2-2.2l-1.4-3
		c0.3-0.6,0.6-1.2,0.8-1.9l3.1-1.1c0.1-0.5,0.1-1,0.1-1.5c0-0.5,0-1-0.1-1.5l-3.1-1.1c-0.2-0.6-0.4-1.3-0.8-1.9l1.4-3
		c-0.6-0.8-1.4-1.5-2.2-2.2l-3,1.4c-0.6-0.3-1.2-0.6-1.9-0.8l-1.1-3.1c-0.5-0.1-1-0.1-1.5-0.1c-0.5,0-1,0-1.5,0.1l-1.1,3.1
		c-0.6,0.2-1.3,0.4-1.9,0.8l-3-1.4c-0.8,0.6-1.5,1.4-2.2,2.2l1.4,3c-0.3,0.6-0.6,1.2-0.8,1.9l-3.1,1.1c-0.1,0.5-0.1,1-0.1,1.5
		c0,0.5,0,1,0.1,1.5L34.2,39.8z M38.4,36.9c0-2.4,2-4.4,4.4-4.4c2.4,0,4.4,2,4.4,4.4c0,2.4-2,4.4-4.4,4.4
		C40.4,41.3,38.4,39.4,38.4,36.9z"/>
	<path class="st3" d="M39.9,35.5c-0.7,1.3-0.5,2.9,0.5,3.9c0.2,0.2,0.5,0.4,0.7,0.5c0.4,0.2,0.9,0.3,1.4,0.4c0.9,0,1.8-0.3,2.5-1
		c0.4-0.4,0.7-0.9,0.8-1.5c0.3-1.1-0.1-2.3-0.9-3.1c-0.9-0.9-2.2-1.2-3.4-0.7l-0.7-2c1.9-0.7,4.1-0.2,5.6,1.2
		c1.3,1.3,1.9,3.3,1.4,5.1c-0.2,0.9-0.7,1.8-1.4,2.4c-1,1-2.4,1.6-3.8,1.6c-0.1,0-0.2,0-0.2,0c-0.8,0-1.6-0.2-2.3-0.6
		c-0.4-0.2-0.9-0.5-1.2-0.9c-1.7-1.7-2.1-4.4-0.9-6.5L39.9,35.5z"/>
	<path class="st3" d="M18,34.1c0,1.4,0.9,2.6,2.2,3.1v5.9h10.4V41h-8.3v-3.8c1.3-0.4,2.2-1.7,2.2-3.1c0-1.8-1.5-3.3-3.3-3.3
		C19.5,30.9,18,32.3,18,34.1z M20.1,34.1c0-0.6,0.5-1.2,1.2-1.2c0.6,0,1.2,0.5,1.2,1.2c0,0.6-0.5,1.2-1.2,1.2
		C20.6,35.3,20.1,34.8,20.1,34.1z"/>
	<path class="st3" d="M33.7,41.5l-1.5,3l0.3,0.4c0.7,0.9,1.5,1.6,2.3,2.3l0.4,0.3l0,0c0,0.1,0,0.1,0,0.2c0,0,0,0.1,0,0.1
		c0,0,0,0.1,0,0.1c0,0.5,0,1,0.1,1.5c0.1,1.9,0.5,3.8,1.1,5.5c0.5,1.6,1.3,3.1,2.2,4.6l-3.2,16.2l25.9,7.4l2.1-6.8h8.7l3.5-11
		l6.3-1.7L80.9,61L77,51.9c0.2-1.3,0.4-2.6,0.4-4c0,0,0-0.1,0-0.1c0-3.7-1-7.3-2.7-10.4c-1-1.9-2.4-3.6-3.9-5.1
		c-2.2-2.2-5-3.8-7.9-4.8c-2.1-0.7-4.3-1-6.5-1c-1.6,0-3.2,0.2-4.8,0.6c-0.1,0-0.2,0.1-0.3,0.1c-0.1-0.1-0.2-0.1-0.3-0.2l-0.4-0.3
		L47.5,28c-0.4-0.2-0.8-0.3-1.2-0.5l-1.1-3.1l-0.6-0.1c-0.3,0-0.6-0.1-0.9-0.1v-3.2h9.7c0.4,1.3,1.7,2.2,3.1,2.2
		c1.8,0,3.3-1.5,3.3-3.3c0-1.8-1.5-3.3-3.3-3.3c-1.4,0-2.6,0.9-3.1,2.2H41.6v5.3c-0.1,0-0.2,0-0.3,0l-0.6,0.1l-1.1,3.1
		c-0.4,0.1-0.8,0.3-1.2,0.5l-3.1-1.4l-0.1,0.1v-3.5H26c-0.4-1.3-1.7-2.2-3.1-2.2c-1.8,0-3.3,1.5-3.3,3.3c0,1.8,1.5,3.3,3.3,3.3
		c1.4,0,2.6-0.9,3.1-2.2h7.2v3.2c-0.2,0.2-0.4,0.5-0.6,0.7l-0.3,0.4l1.5,3c-0.2,0.4-0.3,0.7-0.5,1.1L30,34.9l-0.1,0.5
		c-0.1,0.5-0.1,1.1-0.1,1.6c0,0.5,0,1.1,0.1,1.6l0.1,0.5l3.2,1.1C33.4,40.8,33.5,41.1,33.7,41.5z M24,24.2c0,0.6-0.5,1.2-1.2,1.2
		c-0.6,0-1.2-0.5-1.2-1.2c0-0.6,0.5-1.2,1.2-1.2C23.5,23.1,24,23.6,24,24.2z M55.3,20c0-0.6,0.5-1.2,1.2-1.2c0.6,0,1.2,0.5,1.2,1.2
		c0,0.6-0.5,1.2-1.2,1.2C55.9,21.2,55.3,20.7,55.3,20z M37.3,47.9c0,0,0-0.1,0-0.1v0c0-0.3,0-0.6,0-0.8c0-0.1,0-0.2,0-0.3l0.4-0.2
		l0.7-0.3c0.4,0.2,0.8,0.3,1.2,0.5l1.1,3.1l0.6,0.1c0.5,0.1,1.1,0.1,1.7,0.1c0.6,0,1.1,0,1.7-0.1l0.6-0.1l1.1-3.1
		c0.4-0.1,0.8-0.3,1.2-0.5l3.1,1.4l0.4-0.3c0.6-0.5,1.2-1,1.7-1.5v0h2.8V51c-1.3,0.4-2.2,1.7-2.2,3.1c0,1.8,1.5,3.3,3.3,3.3
		s3.3-1.5,3.3-3.3c0-1.4-0.9-2.6-2.2-3.1v-7.4h-4.3l-1-2.2c0.2-0.4,0.3-0.7,0.5-1.1l3.2-1.1l0.1-0.5c0-0.3,0.1-0.6,0.1-1h5.4
		c0.4,1.3,1.7,2.2,3.1,2.2c1.8,0,3.3-1.5,3.3-3.3c0-1.8-1.5-3.3-3.3-3.3c-1.4,0-2.6,0.9-3.1,2.2H56c0-0.1,0-0.1,0-0.2l-0.1-0.5
		l-3.2-1.1c-0.1-0.4-0.3-0.8-0.5-1.1l1.5-3l-0.3-0.4c-0.1-0.1-0.1-0.1-0.2-0.2c-0.1-0.1-0.2-0.2-0.3-0.3c0.1,0,0.1,0,0.2,0
		c1.1-0.2,2.2-0.3,3.3-0.3c2,0,4,0.3,5.9,0.9c1.3,0.4,2.6,1,3.8,1.8c1.2,0.7,2.3,1.6,3.4,2.6c1.4,1.4,2.6,2.9,3.6,4.6
		c1.6,2.9,2.5,6.2,2.5,9.5l0,0v0.1c0,1.2-0.1,2.5-0.3,3.7l0,0c0,0.1,0,0.1,0,0.1L75,52.1l4.4,10.4l-5.2,1.4l-3.4,10.7h-8v0h-5.1v1.9
		h3.8l-1.4,4.5l-22.4-6.4l3.1-15.3l-0.2-0.3c0,0,0-0.1-0.1-0.1c-0.9-1.4-1.6-2.9-2.2-4.4c-0.6-1.6-0.9-3.3-1-5.1
		C37.3,48.9,37.3,48.4,37.3,47.9z M64.5,35.5c0.6,0,1.2,0.5,1.2,1.2c0,0.6-0.5,1.2-1.2,1.2c-0.6,0-1.2-0.5-1.2-1.2
		C63.4,36.1,63.9,35.5,64.5,35.5z M56.3,53h0.3c0.6,0.1,1,0.6,1,1.1c0,0.6-0.5,1.2-1.2,1.2c-0.6,0-1.2-0.5-1.2-1.2
		C55.3,53.5,55.8,53.1,56.3,53z M34.4,44.3l1.4-2.8l-0.2-0.4c-0.3-0.5-0.5-1.1-0.7-1.6L34.7,39l-3-1c0-0.3,0-0.6,0-0.8
		c0-0.3,0-0.6,0-0.8l3-1l0.1-0.4c0.2-0.6,0.4-1.1,0.7-1.6l0.2-0.4l-1.4-2.8c0.4-0.4,0.8-0.8,1.2-1.2l2.9,1.3l0.4-0.2
		c0.5-0.3,1.1-0.5,1.7-0.7L41,29l1.1-2.9c0.6,0,1.2,0,1.7,0l1.1,2.9l0.4,0.1c0.4,0.1,0.7,0.2,1.1,0.4c0.2,0.1,0.4,0.2,0.6,0.3
		l0.4,0.2l2.9-1.3c0.3,0.2,0.6,0.5,0.8,0.8c0.1,0.1,0.3,0.3,0.4,0.4l-1.4,2.8l0.2,0.4c0.3,0.5,0.5,1.1,0.7,1.6l0.1,0.4l3,1
		c0,0.3,0,0.6,0,0.8c0,0.3,0,0.6,0,0.8l-3,1l-0.1,0.4c-0.2,0.6-0.4,1.1-0.7,1.6l-0.2,0.4l1.4,2.8c-0.4,0.4-0.8,0.8-1.2,1.2l-2.9-1.3
		L47,44.4c-0.5,0.3-1.1,0.5-1.7,0.7l-0.4,0.1l-1.1,2.9c-0.6,0-1.2,0-1.7,0L41,45.2L40.6,45c-0.6-0.2-1.1-0.4-1.7-0.7l-0.4-0.2
		L38,44.4l-2,0.9l-0.4,0.2C35.2,45.1,34.8,44.7,34.4,44.3z"/>
</g>
</svg>
