<?xml version="1.0" encoding="utf-8"?>
<!-- Generator: Adobe Illustrator 24.0.1, SVG Export Plug-In . SVG Version: 6.00 Build 0)  -->
<svg version="1.1" id="Layer_1" xmlns="http://www.w3.org/2000/svg" xmlns:xlink="http://www.w3.org/1999/xlink" x="0px" y="0px"
	 viewBox="0 0 100 100" style="enable-background:new 0 0 100 100;" xml:space="preserve">
<style type="text/css">
	.st0{fill:#A6325C;}
	.st1{fill:#FF912B;}
	.st2{fill:#40BED3;}
	.st3{fill:#213B4F;}
	.st4{fill-rule:evenodd;clip-rule:evenodd;fill:#FF912B;}
	.st5{fill:#231F20;}
	.st6{fill:none;}
	.st7{fill:#E68429;}
	.st8{fill:#CC8035;}
	.st9{fill:#DBE0E3;}
	.st10{fill:#BCC4CA;}
	.st11{fill:#FFFFFF;}
	.st12{fill:#282D33;}
	.st13{fill:#E3E3E3;}
</style>
<g>
	<path class="st2" d="M23.1,47.9c9.1,3,18.4,5.6,27.6,8.5c0.9,0.3,1.8,0.2,2.7-0.2c5.1-2.3,10.2-4.7,15.3-7c1.5-0.7,2.9-1.5,4.1-2.5
		c1.9-1.7,2.8-3.8,3.1-6.3c0.2-1.7,0.2-3.4,0.2-5.2c0-1.4-0.6-2.2-1.9-2.5c-9.5-2.3-18.9-4.7-28.4-7c-0.5-0.1-1.3,0.1-1.6,0.3
		c-0.7,0.4-1,1.1-1.1,1.9c-0.1,1.2-0.1,2.3-0.3,3.5c-0.3,2.5-1.7,4.2-3.9,5.2c-3.4,1.5-6.9,2.9-10.4,4.4c-1.8,0.8-3.6,1.6-5.5,2.3
		C20.2,44.3,20.8,47.1,23.1,47.9z M34.3,43.3c2.1-0.9,4.3-1.8,6.4-2.7c4-1.8,6.2-4.9,6.6-9.3c0-0.2,0-0.4,0.1-0.6
		c1.4,0.3,2.8,0.7,4.1,1c6.5,1.6,13,3.2,19.5,4.8c0.8,0.2,0.8,0.2,0.8,1c0,0.9-0.1,1.8-0.2,2.7c-0.2,2.1-1.5,3.5-3.3,4.4
		c-1.7,0.8-3.5,1.6-5.2,2.4c-3.6,1.6-7.2,3.3-10.8,4.9c-0.3,0.1-0.7,0.2-1,0.1c-7-2.1-14-4.3-21-6.4c-0.2-0.1-0.3-0.1-0.6-0.2
		C31.3,44.6,32.8,43.9,34.3,43.3z"/>
	<path class="st3" d="M78.7,59.5c-0.9-1.4-3-0.6-3.7-0.3c-4.1,1.9-8.2,3.7-12.3,5.6c-3.5,1.6-7,3.2-10.5,4.8c-0.3,0.1-0.7,0.2-1,0.1
		c-9-2.8-18-5.5-27-8.3c-1.3-0.4-2.3-0.1-2.9,0.9c-1,1.6,0.7,3,1.8,3.4c9.3,2.8,18.5,5.7,27.8,8.5c0.8,0.2,1.6,0.2,2.3-0.1
		c7.7-3.5,15.4-7,23.2-10.5C77.3,63,79.8,61.2,78.7,59.5z"/>
	<path class="st1" d="M23.1,56.8c9.2,2.8,18.4,5.6,27.6,8.5c0.9,0.3,1.7,0.2,2.5-0.2C61,61.5,68.8,58,76.6,54.5
		c0.9-0.4,2.2-1.8,1.5-3.2c-0.5-1-2-1.4-3.2-0.8c-7.5,3.4-15.1,6.9-22.6,10.3c-0.4,0.2-0.7,0.2-1.1,0.1c-7.1-2.2-14.2-4.4-21.2-6.5
		c-1.9-0.6-3.9-1.2-5.8-1.8c-0.9-0.3-2.7-0.1-3.1,1.3C20.7,55.3,22,56.4,23.1,56.8z"/>
</g>
</svg>
