<?xml version="1.0" encoding="utf-8"?>
<!-- Generator: Adobe Illustrator 24.0.1, SVG Export Plug-In . SVG Version: 6.00 Build 0)  -->
<svg version="1.1" id="Layer_1" xmlns="http://www.w3.org/2000/svg" xmlns:xlink="http://www.w3.org/1999/xlink" x="0px" y="0px"
	 viewBox="0 0 100 100" style="enable-background:new 0 0 100 100;" xml:space="preserve">
<style type="text/css">
	.st0{fill:#A6325C;}
	.st1{fill:#FF912B;}
	.st2{fill:#40BED3;}
	.st3{fill:#213B4F;}
	.st4{fill-rule:evenodd;clip-rule:evenodd;fill:#FF912B;}
	.st5{fill:#231F20;}
	.st6{fill:none;}
	.st7{fill:#E68429;}
	.st8{fill:#CC8035;}
	.st9{fill:#DBE0E3;}
	.st10{fill:#BCC4CA;}
	.st11{fill:#FFFFFF;}
	.st12{fill:#282D33;}
	.st13{fill:#E3E3E3;}
</style>
<g>
	<path class="st3" d="M76.7,75.8l-7.3-12.7c-0.5-0.9-1.6-1.3-2.6-1l-4.2-7.2c6.2-5.4,7.9-14.6,3.6-21.9c-2.1-3.6-5.3-6.2-8.9-7.6
		v-6.2c0-0.6-0.5-1.1-1.1-1.1c-0.6,0-1.1,0.5-1.1,1.1v5.5c-1.5-0.3-3-0.5-4.5-0.5v-5.1c0-0.6-0.5-1.1-1.1-1.1
		c-0.6,0-1.1,0.5-1.1,1.1v5.3c-2,0.3-4,1-5.9,2.1c-8.3,4.8-11.2,15.5-6.4,23.9c2.3,4,6.1,6.9,10.6,8.1c1.5,0.4,3,0.6,4.6,0.6
		c1.9,0,3.8-0.3,5.6-0.9l4.2,7.2c-0.7,0.7-0.9,1.8-0.4,2.7l7.3,12.7c0.4,0.7,1.2,1.1,2,1.1c0.4,0,0.8-0.1,1.1-0.3l4.9-2.8
		C77,78.3,77.3,76.9,76.7,75.8z M38,49.3c-4.2-7.3-1.7-16.6,5.6-20.8c1.5-0.9,3.1-1.5,4.8-1.8v3.7c0,0.6,0.5,1.1,1.1,1.1
		c0.6,0,1.1-0.5,1.1-1.1v-3.9c0.2,0,0.4,0,0.5,0c1.3,0,2.7,0.2,4,0.5v3.4c0,0.6,0.5,1.1,1.1,1.1c0.6,0,1.1-0.5,1.1-1.1v-2.6
		c2.8,1.3,5.3,3.4,7,6.3c4.2,7.3,1.7,16.6-5.6,20.8C51.5,59.1,42.2,56.6,38,49.3z M60.9,56.3l3.9,6.8l-0.4,0.2l-1.5,0.9l-3.9-6.8
		L60.9,56.3z M74.8,76.9L74.8,76.9l-4.9,2.8L62.6,67l0.5-0.3c0,0,0,0,0,0l2-1.1l2.4-1.4L74.8,76.9L74.8,76.9z"/>
	<path class="st3" d="M29.2,31.5c0.6,0,1.1-0.5,1.1-1.1V19.1c0-0.6-0.5-1.1-1.1-1.1S28,18.5,28,19.1v11.3C28,31,28.6,31.5,29.2,31.5
		z"/>
	<path class="st2" d="M40.5,34.9c-0.6,0-1.1,0.5-1.1,1.1v11.3c0,0.6,0.5,1.1,1.1,1.1c0.6,0,1.1-0.5,1.1-1.1V36.1
		C41.6,35.4,41.1,34.9,40.5,34.9z"/>
	<path class="st2" d="M60.8,48.5c0.6,0,1.1-0.5,1.1-1.1V36.1c0-0.6-0.5-1.1-1.1-1.1c-0.6,0-1.1,0.5-1.1,1.1v11.3
		C59.6,48,60.1,48.5,60.8,48.5z"/>
	<path class="st3" d="M35.9,28.2c0.6,0,1.1-0.5,1.1-1.1v-4.7c0-1.2,0.9-2.1,2.1-2.1h0.3c1.2,0,2.1,0.9,2.1,2.1
		c0,0.6,0.5,1.1,1.1,1.1c0.6,0,1.1-0.5,1.1-1.1c0-2.4-1.9-4.3-4.3-4.3h-0.3c-2.4,0-4.3,1.9-4.3,4.3V27
		C34.8,27.6,35.3,28.2,35.9,28.2z"/>
	<path class="st3" d="M27.7,34.9h-0.3c-2.4,0-4.3,1.9-4.3,4.3v4.9c0,2.4,1.9,4.3,4.3,4.3h0.3c2.4,0,4.3-1.9,4.3-4.3v-4.9
		C32,36.9,30,34.9,27.7,34.9z M29.7,44.1c0,1.2-0.9,2.1-2.1,2.1h-0.3c-1.2,0-2.1-0.9-2.1-2.1v-4.9c0-1.2,0.9-2.1,2.1-2.1h0.3
		c1.2,0,2.1,0.9,2.1,2.1V44.1z"/>
	<path class="st2" d="M50.8,34.9h-0.3c-2.4,0-4.3,1.9-4.3,4.3v4.9c0,2.4,1.9,4.3,4.3,4.3h0.3c2.4,0,4.3-1.9,4.3-4.3v-4.9
		C55.1,36.9,53.2,34.9,50.8,34.9z M52.9,44.1c0,1.2-0.9,2.1-2.1,2.1h-0.3c-1.2,0-2.1-0.9-2.1-2.1v-4.9c0-1.2,0.9-2.1,2.1-2.1h0.3
		c1.2,0,2.1,0.9,2.1,2.1V44.1z"/>
</g>
</svg>
