<?xml version="1.0" encoding="utf-8"?>
<!-- Generator: Adobe Illustrator 24.0.1, SVG Export Plug-In . SVG Version: 6.00 Build 0)  -->
<svg version="1.1" id="Layer_1" xmlns="http://www.w3.org/2000/svg" xmlns:xlink="http://www.w3.org/1999/xlink" x="0px" y="0px"
	 viewBox="0 0 100 100" style="enable-background:new 0 0 100 100;" xml:space="preserve">
<style type="text/css">
	.st0{fill:#A6325C;}
	.st1{fill:#FF912B;}
	.st2{fill:#40BED3;}
	.st3{fill:#213B4F;}
	.st4{fill-rule:evenodd;clip-rule:evenodd;fill:#FF912B;}
	.st5{fill:#231F20;}
	.st6{fill:none;}
	.st7{fill:#E68429;}
	.st8{fill:#CC8035;}
	.st9{fill:#DBE0E3;}
	.st10{fill:#BCC4CA;}
	.st11{fill:#FFFFFF;}
	.st12{fill:#282D33;}
	.st13{fill:#E3E3E3;}
</style>
<g id="Icon13">
	<g>
		<g>
			<path class="st3" d="M61.3,78.8l-0.8-2.2c10.4-3.8,17.8-13,19.4-23.9l2.3,0.3C80.4,64.8,72.4,74.6,61.3,78.8z"/>
			<path class="st3" d="M79.8,43.8c-2.2-14.7-15-25.7-29.8-25.7S22.3,29.1,20.2,43.8l-2.3-0.3C20.2,27.7,34,15.8,50,15.8
				s29.8,11.9,32.1,27.7L79.8,43.8z"/>
			<path class="st3" d="M50,75c-2,0-3.8,1.3-4.4,3.2c-13.1-1.9-23.5-12.2-25.5-25.4l-2.3,0.3C20,67.3,31.3,78.4,45.4,80.4
				c0.4,2.2,2.3,3.8,4.6,3.8c2.6,0,4.6-2.1,4.6-4.6S52.6,75,50,75z M50,81.9c-1.3,0-2.3-1-2.3-2.3s1-2.3,2.3-2.3
				c1.3,0,2.3,1,2.3,2.3S51.3,81.9,50,81.9z"/>
		</g>
		<g>
			<path class="st3" d="M29.6,43.9l-2.3-0.5C28.7,36.7,33,31.1,39,27.8l1.1,2C34.7,32.8,30.8,37.9,29.6,43.9z"/>
			<path class="st3" d="M50,71.5c-10.9,0-20.4-7.7-22.7-18.3l2.3-0.5c2,9.6,10.6,16.5,20.4,16.5s18.4-6.9,20.4-16.5l2.3,0.5
				C70.4,63.8,60.9,71.5,50,71.5z"/>
			<path class="st3" d="M54.6,25.5c-0.3-2.2-2.2-4-4.6-4c-2.6,0-4.6,2.1-4.6,4.6s2.1,4.6,4.6,4.6c2,0,3.7-1.3,4.3-3
				c8,1.7,14.4,8,16.1,16l2.3-0.5C70.8,34.4,63.6,27.3,54.6,25.5z M50,28.5c-1.3,0-2.3-1-2.3-2.3c0-1.3,1-2.3,2.3-2.3
				c1.3,0,2.3,1,2.3,2.3C52.3,27.5,51.3,28.5,50,28.5z"/>
		</g>
		<g>
			<rect x="75.5" y="47.1" class="st3" width="2.3" height="2.3"/>
			<rect x="80.2" y="47.1" class="st3" width="2.3" height="2.3"/>
			<rect x="70.9" y="47.1" class="st3" width="2.3" height="2.3"/>
		</g>
		<g>
			<rect x="22.1" y="47.1" class="st3" width="2.3" height="2.3"/>
			<rect x="26.8" y="47.1" class="st3" width="2.3" height="2.3"/>
			<rect x="17.5" y="47.1" class="st3" width="2.3" height="2.3"/>
		</g>
	</g>
	<g>
		<path class="st2" d="M62.3,60.6L50,48.3v17.4C54.8,65.7,59.2,63.7,62.3,60.6z"/>
		<path class="st13" d="M67.4,48.3c0-4.8-1.9-9.2-5.1-12.3L50,48.3H67.4z"/>
		<path class="st1" d="M42.6,47c0.2-1.9,1.1-3.6,2.5-4.7L40.7,37c-2.8,2.3-4.7,5.6-5.1,9.4c-0.8,7.7,4.8,14.5,12.5,15.3l0.7-6.9
			C45,54.3,42.2,50.9,42.6,47z"/>
	</g>
</g>
</svg>
