<?xml version="1.0" encoding="utf-8"?>
<!-- Generator: Adobe Illustrator 24.0.1, SVG Export Plug-In . SVG Version: 6.00 Build 0)  -->
<svg version="1.1" id="Layer_1" xmlns="http://www.w3.org/2000/svg" xmlns:xlink="http://www.w3.org/1999/xlink" x="0px" y="0px"
	 viewBox="0 0 100 100" style="enable-background:new 0 0 100 100;" xml:space="preserve">
<style type="text/css">
	.st0{fill:#A6325C;}
	.st1{fill:#FF912B;}
	.st2{fill:#40BED3;}
	.st3{fill:#213B4F;}
	.st4{fill-rule:evenodd;clip-rule:evenodd;fill:#FF912B;}
	.st5{fill:#231F20;}
	.st6{fill:none;}
	.st7{fill:#E68429;}
	.st8{fill:#CC8035;}
	.st9{fill:#DBE0E3;}
	.st10{fill:#BCC4CA;}
	.st11{fill:#FFFFFF;}
	.st12{fill:#282D33;}
	.st13{fill:#E3E3E3;}
</style>
<g id="Icon1">
	<g id="ARC_11_">
		<g id="XMLID_1_">
			<g>
				
					<ellipse transform="matrix(0.2318 -0.9728 0.9728 0.2318 30.6067 99.8421)" class="st0" cx="78.5" cy="30.5" rx="4.5" ry="4.5"/>
				<path class="st1" d="M72.4,60.6l4.5,2.6C72.4,70.7,65,76,56.4,77.8c-1.2-3.5-5-5.4-8.5-4.2c-2,0.7-3.6,2.2-4.2,4.2
					c-8.6-1.8-16-7.1-20.5-14.6l4.5-2.6c0.3-0.2,0.6-0.4,0.9-0.6c0.3-0.2,0.5-0.5,0.7-0.9c0.1-0.3,0.1-0.6,0-0.9
					c-0.1-0.3-0.4-0.6-0.6-0.8c-0.6-0.3-1.2-0.6-1.7-0.8c-0.4-0.2-0.7-0.5-0.9-0.8c-0.2-0.4-0.3-0.8-0.3-1.2c0-1.1,0.6-2.2,1.6-2.8
					l0.1,0l0.1,0c1-0.6,2.2-0.6,3.2,0c0.4,0.2,0.7,0.5,0.9,0.9c0.2,0.4,0.3,0.8,0.3,1.2c-0.1,0.6-0.1,1.3-0.2,1.9
					c0,0.3,0.1,0.7,0.3,0.9c0.2,0.2,0.5,0.4,0.8,0.4c0.4,0,0.7,0,1.1-0.2c0.3-0.1,0.7-0.3,1-0.5l3.5-2c4.1,6.5,12.7,8.4,19.3,4.3
					c1.7-1.1,3.2-2.6,4.3-4.3l3.5,2c0.3,0.2,0.5,0.3,0.8,0.6c0.1,0,0.1,0.1,0.2,0.2c0,0,0,0,0,0c0.1,0.2,0.1,0.4-0.1,0.5
					c-0.5,0.3-1,0.5-1.6,0.8c-0.6,0.3-1.1,0.7-1.4,1.3c-0.3,0.5-0.5,1.2-0.5,1.8c0,1.6,0.8,3,2.2,3.7l0.1,0l0.1,0
					c1.3,0.8,3,0.8,4.3,0c0.6-0.3,1-0.8,1.3-1.3c0.3-0.6,0.4-1.2,0.4-1.9C71,61.6,71,61,70.9,60.4c0,0,0,0,0,0
					c0-0.2,0.2-0.3,0.4-0.3c0.1,0,0.1,0,0.2,0.1C71.9,60.3,72.2,60.5,72.4,60.6z"/>
				<path class="st0" d="M56.3,28.7c1.3-0.8,2.2-2.2,2.1-3.8v-0.1v-0.1c0-1.6-0.8-3-2.1-3.8c-0.6-0.3-1.2-0.5-1.8-0.5
					c-0.7,0-1.3,0.2-1.8,0.6c-0.5,0.3-0.9,0.7-1.4,1c0,0,0,0,0,0c-0.2,0.1-0.4,0-0.4-0.2c0-0.1,0-0.1-0.1-0.2c0-0.3-0.1-0.6-0.1-1
					v-5.2c8.8,0.2,17.1,4,22.9,10.5c-2.5,2.8-2.2,7.1,0.6,9.5c1.6,1.4,3.7,2,5.8,1.6c2.7,8.3,1.9,17.4-2.3,25.1L73,59.6
					c-0.3-0.2-0.7-0.3-1-0.5C71.7,59,71.3,59,70.9,59c-0.3,0.1-0.6,0.2-0.8,0.4c-0.2,0.3-0.3,0.6-0.3,0.9c0,0.6,0.1,1.3,0.2,1.9
					c0,0.4-0.1,0.9-0.3,1.2c-0.2,0.4-0.5,0.7-0.9,0.9c-1,0.6-2.2,0.6-3.2,0l-0.1,0l-0.1,0c-1-0.6-1.6-1.6-1.6-2.8
					c0-0.4,0.1-0.8,0.3-1.2c0.2-0.4,0.6-0.7,0.9-0.8c0.6-0.3,1.2-0.5,1.7-0.8c0.3-0.2,0.5-0.4,0.6-0.8c0.1-0.3,0.1-0.6,0-0.9
					c-0.2-0.3-0.4-0.6-0.7-0.9c-0.3-0.2-0.6-0.4-0.9-0.6l-3.5-2c3.6-6.8,0.9-15.3-5.9-18.8c-1.8-1-3.8-1.5-5.9-1.6V29
					c0-0.3,0-0.6,0.1-1c0-0.1,0-0.2,0.1-0.2c0,0,0,0,0,0c0.1-0.2,0.3-0.2,0.5-0.2c0.5,0.3,1,0.6,1.4,1c0.5,0.4,1.2,0.6,1.8,0.6
					C55.1,29.2,55.7,29,56.3,28.7z"/>
				<path class="st1" d="M50,75.5c2.5,0,4.5,2,4.5,4.5s-2,4.5-4.5,4.5c-2.5,0-4.5-2-4.5-4.5S47.5,75.5,50,75.5z"/>
				<path class="st2" d="M57.3,24.9c0,1.1-0.6,2.2-1.6,2.8c-0.4,0.2-0.8,0.3-1.2,0.3c-0.4,0-0.8-0.1-1.2-0.4c-0.5-0.4-1-0.7-1.6-1.1
					c-0.3-0.2-0.6-0.2-1-0.2c-0.3,0.1-0.6,0.2-0.8,0.5c-0.2,0.3-0.4,0.7-0.4,1c-0.1,0.4-0.1,0.7-0.1,1.1v4.1
					c-7.7,0.3-13.7,6.8-13.4,14.5c0.1,2.1,0.6,4.1,1.6,5.9l-3.5,2c-0.3,0.2-0.6,0.3-0.9,0.4C33.2,56,33.1,56,33,56c0,0,0,0,0,0
					c-0.2,0-0.4-0.1-0.4-0.3c0-0.6,0.1-1.2,0.1-1.7c0-0.7-0.1-1.3-0.4-1.9c-0.3-0.6-0.8-1-1.3-1.4c-1.3-0.8-3-0.8-4.3,0l-0.1,0
					l-0.1,0c-1.3,0.8-2.2,2.2-2.2,3.7c0,0.6,0.2,1.3,0.5,1.8c0.3,0.6,0.8,1,1.4,1.3c0.5,0.2,1.1,0.5,1.6,0.8c0,0,0,0,0,0
					c0.1,0.1,0.2,0.3,0,0.5c-0.1,0.1-0.1,0.1-0.2,0.2c-0.3,0.2-0.5,0.4-0.8,0.6l-4.5,2.6c-4.2-7.7-5.1-16.8-2.3-25.1
					c3.7,0.7,7.2-1.6,7.9-5.3c0.4-2.1-0.2-4.2-1.6-5.8c5.8-6.5,14.1-10.3,22.9-10.5v5.2c0,0.4,0,0.7,0.1,1.1c0,0.4,0.2,0.7,0.4,1
					c0.2,0.2,0.5,0.4,0.8,0.5c0.3,0.1,0.7,0,1-0.2c0.5-0.4,1.1-0.7,1.6-1.1c0.4-0.2,0.8-0.4,1.2-0.4c0.4,0,0.8,0.1,1.2,0.3
					c1,0.6,1.6,1.6,1.6,2.8V24.9L57.3,24.9z"/>
				<path class="st2" d="M21.5,26.1c2.5,0,4.5,2,4.5,4.5S24,35,21.5,35C19,35,17,33,17,30.5S19,26.1,21.5,26.1z"/>
			</g>
		</g>
	</g>
	<path class="st3" d="M50,35.7c-6.3,0-11.4,5.1-11.4,11.4c0,4.4,2.5,8.2,6.2,10.1v-5.3c0-1.1,0.9-2,2-2h6.4c1.1,0,2,0.9,2,2v5.3
		c3.7-1.9,6.2-5.7,6.2-10.1C61.4,40.8,56.3,35.7,50,35.7z M50,49.2c-2.1,0-3.8-1.7-3.8-3.8c0-2.1,1.7-3.8,3.8-3.8
		c2.1,0,3.8,1.7,3.8,3.8C53.8,47.6,52.1,49.2,50,49.2z"/>
</g>
</svg>
