<?xml version="1.0" encoding="utf-8"?>
<!-- Generator: Adobe Illustrator 24.0.1, SVG Export Plug-In . SVG Version: 6.00 Build 0)  -->
<svg version="1.1" id="Layer_1" xmlns="http://www.w3.org/2000/svg" xmlns:xlink="http://www.w3.org/1999/xlink" x="0px" y="0px"
	 viewBox="0 0 100 100" style="enable-background:new 0 0 100 100;" xml:space="preserve">
<style type="text/css">
	.st0{fill:#A6325C;}
	.st1{fill:#FF912B;}
	.st2{fill:#40BED3;}
	.st3{fill:#213B4F;}
	.st4{fill-rule:evenodd;clip-rule:evenodd;fill:#FF912B;}
	.st5{fill:#231F20;}
	.st6{fill:none;}
	.st7{fill:#E68429;}
	.st8{fill:#CC8035;}
	.st9{fill:#DBE0E3;}
	.st10{fill:#BCC4CA;}
	.st11{fill:#FFFFFF;}
	.st12{fill:#282D33;}
	.st13{fill:#E3E3E3;}
</style>
<g id="Icon16">
	<path class="st1" d="M42.9,28.9h14.1c0.4,0,0.7-0.3,0.7-0.7v-1.9c0-1.8-1.5-3.3-3.3-3.3h-0.4c-0.5-1.8-2.1-3-4.1-3
		c-1.9,0-3.6,1.3-4.1,3h-0.4c-1.8,0-3.3,1.5-3.3,3.3v1.9C42.3,28.6,42.6,28.9,42.9,28.9z M50,22.6c0.9,0,1.7,0.8,1.7,1.7
		c0,0.9-0.8,1.7-1.7,1.7c-0.9,0-1.7-0.8-1.7-1.7C48.3,23.4,49.1,22.6,50,22.6z"/>
	<path class="st3" d="M68.8,25.6h-9.9v2h9.9c0.3,0,0.5,0.2,0.5,0.5v49.4c0,0.3-0.2,0.5-0.5,0.5H31.2c-0.3,0-0.5-0.2-0.5-0.5V28.1
		c0-0.3,0.1-0.5,0.2-0.5h9.5v-2h-9.5c-1.2,0-2.2,1.1-2.2,2.5v49.4c0,1.4,1.1,2.5,2.5,2.5h37.5c1.4,0,2.5-1.1,2.5-2.5V28.1
		C71.3,26.7,70.2,25.6,68.8,25.6z"/>
	<rect x="47.7" y="36.8" class="st3" width="17.3" height="1.8"/>
	<path class="st2" d="M38.6,32.3c-3.1,0-5.6,2.5-5.6,5.6s2.5,5.6,5.6,5.6c3.1,0,5.6-2.5,5.6-5.6S41.7,32.3,38.6,32.3z M38.6,41.5
		c-2,0-3.7-1.7-3.7-3.7c0-2,1.7-3.7,3.7-3.7c1,0,1.9,0.4,2.5,1l-2.5,2.5l-1.5-1.5l-1.3,1.3l2.9,2.9l3.5-3.5c0.1,0.3,0.1,0.6,0.1,1
		C42.3,39.9,40.7,41.5,38.6,41.5z"/>
	<rect x="47.7" y="52.2" class="st3" width="17.3" height="1.8"/>
	<path class="st2" d="M38.6,47.7c-3.1,0-5.6,2.5-5.6,5.6s2.5,5.6,5.6,5.6c3.1,0,5.6-2.5,5.6-5.6S41.7,47.7,38.6,47.7z M38.6,56.9
		c-2,0-3.7-1.7-3.7-3.7c0-2,1.7-3.7,3.7-3.7c1,0,1.9,0.4,2.5,1l-2.5,2.5l-1.5-1.5l-1.3,1.3l2.9,2.9l3.5-3.5c0.1,0.3,0.1,0.6,0.1,1
		C42.3,55.3,40.7,56.9,38.6,56.9z"/>
	<rect x="47.7" y="67.6" class="st3" width="17.3" height="1.8"/>
	<path class="st2" d="M38.6,63c-3.1,0-5.6,2.5-5.6,5.6c0,3.1,2.5,5.6,5.6,5.6c3.1,0,5.6-2.5,5.6-5.6C44.2,65.5,41.7,63,38.6,63z
		 M38.6,72.3c-2,0-3.7-1.7-3.7-3.7c0-2,1.7-3.7,3.7-3.7c1,0,1.9,0.4,2.5,1l-2.5,2.5L37.1,67l-1.3,1.3l2.9,2.9l3.5-3.5
		c0.1,0.3,0.1,0.6,0.1,1C42.3,70.7,40.7,72.3,38.6,72.3z"/>
</g>
</svg>
