<?xml version="1.0" encoding="utf-8"?>
<!-- Generator: Adobe Illustrator 24.0.1, SVG Export Plug-In . SVG Version: 6.00 Build 0)  -->
<svg version="1.1" id="Layer_1" xmlns="http://www.w3.org/2000/svg" xmlns:xlink="http://www.w3.org/1999/xlink" x="0px" y="0px"
	 viewBox="0 0 100 100" style="enable-background:new 0 0 100 100;" xml:space="preserve">
<style type="text/css">
	.st0{fill:#A6325C;}
	.st1{fill:#FF912B;}
	.st2{fill:#40BED3;}
	.st3{fill:#213B4F;}
	.st4{fill-rule:evenodd;clip-rule:evenodd;fill:#FF912B;}
	.st5{fill:#231F20;}
	.st6{fill:none;}
	.st7{fill:#E68429;}
	.st8{fill:#CC8035;}
	.st9{fill:#DBE0E3;}
	.st10{fill:#BCC4CA;}
	.st11{fill:#FFFFFF;}
	.st12{fill:#282D33;}
	.st13{fill:#E3E3E3;}
</style>
<g id="Icon17">
	<path class="st2" d="M60.8,48c0-0.7-0.2-1.3-0.7-1.8c-0.5-0.6-1.1-0.8-1.9-0.9c0-0.2,0-0.4,0-0.6c0-1,0-2-0.1-3
		c-0.5-4.4-4.6-7.6-9-7.1c-4.2,0.5-7.4,4.1-7.4,8.4c0,0.8,0,1.5,0,2.3c-0.1,0-0.2,0-0.2,0c-1.4,0.2-2.3,1.2-2.3,2.5
		c0,3.6,0,7.3,0,10.9c0,1.5,1.1,2.6,2.5,2.6c5.5,0,11,0,16.4,0c1.5,0,2.5-1.1,2.5-2.6C60.8,55.3,60.8,51.6,60.8,48z M51.3,54.4v2.1
		c0,0.7-0.6,1.3-1.3,1.3l0,0c-0.7,0-1.3-0.6-1.3-1.3v-2.2c-0.9-0.5-1.5-1.4-1.5-2.5c0-1.6,1.3-2.8,2.8-2.8c1.6,0,2.8,1.3,2.8,2.8
		C52.8,53,52.2,53.9,51.3,54.4z M55.2,45.4c-3.4,0-6.9,0-10.4,0c0.1-1.4-0.2-2.9,0.4-4.2c0.9-2.4,3.1-3.7,5.5-3.5
		c2.3,0.2,4.3,2.2,4.6,4.6C55.3,43.2,55.2,44.3,55.2,45.4z"/>
	<path class="st3" d="M50,21.9c6.8,4.6,13.8,8.6,22.2,9.5c0,0.2,0,0.4,0,0.5c0,6.7,0,13.4,0,20.1c0,6.2-2.4,11.4-6.6,15.8
		c-4.2,4.4-9.2,7.7-14.9,10c-0.3,0.1-0.5,0.2-0.8,0.2c-0.2,0-0.4,0-0.7-0.1c-7-2.9-13.1-7.1-17.7-13.3c-2.5-3.4-3.8-7.2-3.8-11.4
		c-0.1-7.1-0.1-14.3-0.1-21.4c0-0.1,0-0.2,0-0.4C36.1,30.5,43.2,26.5,50,21.9 M50,17.5c-0.9,0-1.7,0.3-2.5,0.8
		c-2.7,1.8-6.2,4.1-9.9,5.8c-3.6,1.6-6.9,2.6-10.3,2.9c-2.1,0.2-3.7,1.8-4,3.9c0,0,0,0,0,0c0,0.2-0.1,0.5-0.1,0.9c0,2.1,0,4.2,0,6.2
		c0,5,0,10.2,0.1,15.3c0,2.5,0.5,5,1.2,7.3c0.8,2.3,1.9,4.5,3.4,6.6c2.4,3.4,5.4,6.3,8.8,8.9c3.1,2.3,6.7,4.3,10.7,6
		c0.8,0.3,1.6,0.5,2.4,0.5c0.8,0,1.6-0.2,2.5-0.5c3.1-1.3,6.1-2.8,8.8-4.6c2.8-1.8,5.4-4,7.7-6.4c5.2-5.4,7.8-11.8,7.8-18.9
		c0-4.3,0-8.6,0-12.8c0-2.5,0-4.9,0-7.4c0-0.3,0-0.6-0.1-0.8c0,0,0-0.1,0-0.1c-0.2-2.1-1.8-3.8-4-4c-7.7-0.8-14.2-4.7-20.2-8.7
		C51.8,17.8,50.9,17.5,50,17.5L50,17.5z"/>
</g>
</svg>
