<?xml version="1.0" encoding="utf-8"?>
<!-- Generator: Adobe Illustrator 24.0.1, SVG Export Plug-In . SVG Version: 6.00 Build 0)  -->
<svg version="1.1" id="Layer_1" xmlns="http://www.w3.org/2000/svg" xmlns:xlink="http://www.w3.org/1999/xlink" x="0px" y="0px"
	 viewBox="0 0 100 100" style="enable-background:new 0 0 100 100;" xml:space="preserve">
<style type="text/css">
	.st0{fill:#A6325C;}
	.st1{fill:#FF912B;}
	.st2{fill:#40BED3;}
	.st3{fill:#213B4F;}
	.st4{fill-rule:evenodd;clip-rule:evenodd;fill:#FF912B;}
	.st5{fill:#231F20;}
	.st6{fill:none;}
	.st7{fill:#E68429;}
	.st8{fill:#CC8035;}
	.st9{fill:#DBE0E3;}
	.st10{fill:#BCC4CA;}
	.st11{fill:#FFFFFF;}
	.st12{fill:#282D33;}
	.st13{fill:#E3E3E3;}
</style>
<g id="Icon10">
	<g>
		<rect x="71.1" y="31.1" class="st3" width="2.5" height="8.9"/>
	</g>
	<g>
		<polygon class="st3" points="31.7,40 29.2,40 29.2,18.2 60.7,18.2 60.7,20.7 31.7,20.7 		"/>
	</g>
	<g>
		<polygon class="st2" points="62.7,29.2 73.7,29.2 62.7,18.1 		"/>
	</g>
	<g>
		<rect x="36.1" y="26.9" class="st3" width="12.4" height="2.5"/>
	</g>
	<g>
		<rect x="35.8" y="32.2" class="st3" width="29.5" height="2.5"/>
	</g>
	<g>
		<rect x="35.8" y="37.5" class="st3" width="29.5" height="2.5"/>
	</g>
	<g>
		<rect x="35.8" y="58.8" class="st3" width="29.5" height="2.5"/>
	</g>
	<g>
		<rect x="35.8" y="64.1" class="st3" width="29.5" height="2.5"/>
	</g>
	<g>
		<rect x="30.5" y="44.1" class="st1" width="41.9" height="10.6"/>
		<path class="st5" d="M28.5,42.8l-9.6,6.6l9.6,6.6l45.1,0V42.8L28.5,42.8z M23.3,49.4l5.9-4.1v8.1L23.3,49.4z M71.1,53.5l-39.4,0
			v-2.8h39.4V53.5z M71.1,48.2H31.7v-2.8l39.4,0V48.2z"/>
		<g>
			<path class="st5" d="M79.1,55.9l-3.4,0v-2.5l3,0l0-8.1h-3v-2.5h3.4c0.6,0,1.2,0.3,1.6,0.9c0.3,0.4,0.4,1,0.4,1.5l0,8.2
				C81.1,54.8,80.2,55.9,79.1,55.9z"/>
		</g>
	</g>
	<g>
		<polygon class="st3" points="66.6,81.9 54.6,75 29.2,75 29.2,58.8 31.7,58.8 31.7,72.5 55.3,72.5 64.1,77.6 64.1,72.5 71.1,72.5 
			71.1,58.8 73.6,58.8 73.6,75 66.6,75 		"/>
	</g>
</g>
</svg>
