<?xml version="1.0" encoding="utf-8"?>
<!-- Generator: Adobe Illustrator 24.0.1, SVG Export Plug-In . SVG Version: 6.00 Build 0)  -->
<svg version="1.1" id="Layer_1" xmlns="http://www.w3.org/2000/svg" xmlns:xlink="http://www.w3.org/1999/xlink" x="0px" y="0px"
	 viewBox="0 0 100 100" style="enable-background:new 0 0 100 100;" xml:space="preserve">
<style type="text/css">
	.st0{fill:#A6325C;}
	.st1{fill:#FF912B;}
	.st2{fill:#40BED3;}
	.st3{fill:#213B4F;}
	.st4{fill-rule:evenodd;clip-rule:evenodd;fill:#FF912B;}
	.st5{fill:#231F20;}
	.st6{fill:none;}
	.st7{fill:#E68429;}
	.st8{fill:#CC8035;}
	.st9{fill:#DBE0E3;}
	.st10{fill:#BCC4CA;}
	.st11{fill:#FFFFFF;}
	.st12{fill:#282D33;}
	.st13{fill:#E3E3E3;}
</style>
<g id="Icon6">
	<path class="st3" d="M71.1,63.5c-0.9,0-1.7-0.7-1.7-1.7c0-0.9,0.7-1.7,1.7-1.7c5.8,0,10.5-4.7,10.5-10.6c0-5.5-4.2-10.1-9.7-10.6
		c-0.8-0.1-1.5-0.7-1.5-1.5c-0.4-6.4-5.8-11.4-12.3-11.4c-1.8,0-3.5,0.4-5.2,1.1c-0.6,0.2-1.2,0.2-1.7-0.2c-2.7-2.3-6.2-3.6-9.8-3.6
		c-8.3,0-14.9,6.5-15,14.8c0,0.7-0.5,1.3-1.1,1.5c-4.2,1.5-7,5.5-7,9.9c0,5.8,4.8,10.6,10.6,10.6c0.9,0,1.7,0.7,1.7,1.7
		c0,0.9-0.7,1.7-1.7,1.7c-7.7,0-13.9-6.2-13.9-13.9c0-5.5,3.2-10.4,8.2-12.6c0.7-9.6,8.6-16.9,18.3-16.9c4,0,7.9,1.3,11.1,3.7
		c1.8-0.7,3.7-1,5.6-1c7.7,0,14.3,5.7,15.4,13.2C80.2,37.2,85,42.9,85,49.7C85,57.3,78.8,63.5,71.1,63.5z"/>
	<path class="st2" d="M45.9,79.8c-0.2,0-0.4,0-0.6-0.1l-4.6-1.9c-0.4-0.2-0.7-0.5-0.9-0.9c-0.2-0.4-0.2-0.9,0-1.3l0.7-1.6
		c-1-0.8-1.8-1.7-2.6-2.6l-1.6,0.7c-0.4,0.2-0.9,0.2-1.3,0c-0.4-0.2-0.7-0.5-0.9-0.9l-1.9-4.6c-0.3-0.8,0-1.8,0.9-2.2l1.6-0.7
		c-0.1-1.3-0.2-2.5,0-3.8l-1.6-0.7c-0.4-0.2-0.7-0.5-0.9-0.9c-0.2-0.4-0.2-0.9,0-1.3l1.9-4.5c0.4-0.8,1.3-1.2,2.2-0.9l1.6,0.7
		c0.8-1,1.7-1.9,2.7-2.7l-0.7-1.7c-0.2-0.4-0.2-0.9,0-1.3c0.2-0.4,0.5-0.7,0.9-0.9l4.6-1.8c0.8-0.3,1.8,0.1,2.1,0.9l0.7,1.6
		c1.2-0.2,2.5-0.1,3.8,0l0.7-1.6c0.3-0.8,1.3-1.2,2.1-0.9l4.5,1.8c0.4,0.2,0.7,0.5,0.9,0.9c0.2,0.4,0.2,0.9,0,1.3l-0.7,1.7
		c1,0.8,1.9,1.7,2.7,2.7l1.6-0.7c0.8-0.3,1.8,0,2.2,0.9l1.9,4.5c0.2,0.4,0.2,0.9,0,1.3c-0.2,0.4-0.5,0.7-0.9,0.9L65.3,60
		c0.1,1.3,0.2,2.5,0,3.8l1.6,0.7c0.8,0.3,1.2,1.3,0.9,2.2l-1.9,4.6c-0.2,0.4-0.5,0.7-0.9,0.9c-0.4,0.2-0.9,0.2-1.3,0l-1.6-0.7
		c-0.8,1-1.7,1.8-2.6,2.6l0.7,1.6c0.3,0.8,0,1.8-0.9,2.2l-4.5,1.9c-0.4,0.2-0.9,0.2-1.3,0c-0.4-0.2-0.7-0.5-0.9-0.9l-0.7-1.6
		c-1.3,0.1-2.5,0.2-3.8,0l-0.7,1.6C47.2,79.5,46.6,79.8,45.9,79.8z M43.5,75.4l1.5,0.6l0.5-1.3c0.3-0.7,1.1-1.1,1.9-1
		c1.7,0.4,3.4,0.3,5.2,0c0.8-0.2,1.5,0.3,1.8,1L55,76l1.4-0.6l-0.5-1.3c-0.3-0.7,0-1.6,0.6-2c1.5-1,2.7-2.2,3.6-3.6
		c0.4-0.7,1.3-0.9,2-0.6l1.3,0.5l0.6-1.5l-1.3-0.5c-0.7-0.3-1.1-1.1-1-1.9c0.3-1.7,0.3-3.4,0-5.2c-0.2-0.8,0.3-1.5,1-1.8l1.3-0.5
		l-0.6-1.4L62.2,56c-0.8,0.3-1.6,0-2.1-0.7c-0.8-1.4-2-2.6-3.5-3.5c-0.7-0.4-1-1.3-0.7-2l0.6-1.4L55,47.8l-0.6,1.3
		c-0.3,0.7-1.1,1.2-1.9,1c-1.9-0.4-3.5-0.4-5.1,0c-0.8,0.2-1.6-0.2-1.9-1L45,47.8l-1.5,0.6l0.6,1.4c0.3,0.7,0,1.6-0.7,2
		c-1.4,0.9-2.7,2.1-3.6,3.6c-0.4,0.7-1.3,1-2,0.7l-1.3-0.5l-0.6,1.4l1.3,0.5c0.7,0.3,1.1,1.1,1,1.9c-0.3,1.7-0.3,3.4,0,5.2
		c0.2,0.8-0.3,1.5-1,1.8l-1.3,0.5l0.6,1.5l1.3-0.5c0.7-0.3,1.6-0.1,2,0.6c1,1.5,2.2,2.7,3.6,3.6c0.7,0.4,0.9,1.3,0.6,2L43.5,75.4z"
		/>
	<path class="st1" d="M50,69.4c-4.1,0-7.5-3.4-7.5-7.5c0-4.1,3.4-7.5,7.5-7.5c4.1,0,7.5,3.4,7.5,7.5C57.5,66,54.2,69.4,50,69.4z
		 M50,57.7c-2.3,0-4.2,1.9-4.2,4.2c0,2.3,1.9,4.2,4.2,4.2c2.3,0,4.2-1.9,4.2-4.2C54.2,59.6,52.3,57.7,50,57.7z"/>
</g>
</svg>
