<?xml version="1.0" encoding="utf-8"?>
<!-- Generator: Adobe Illustrator 24.0.1, SVG Export Plug-In . SVG Version: 6.00 Build 0)  -->
<svg version="1.1" id="Layer_1" xmlns="http://www.w3.org/2000/svg" xmlns:xlink="http://www.w3.org/1999/xlink" x="0px" y="0px"
	 viewBox="0 0 100 100" style="enable-background:new 0 0 100 100;" xml:space="preserve">
<style type="text/css">
	.st0{fill:#A6325C;}
	.st1{fill:#FF912B;}
	.st2{fill:#40BED3;}
	.st3{fill:#213B4F;}
	.st4{fill-rule:evenodd;clip-rule:evenodd;fill:#FF912B;}
	.st5{fill:#231F20;}
	.st6{fill:none;}
	.st7{fill:#E68429;}
	.st8{fill:#CC8035;}
	.st9{fill:#DBE0E3;}
	.st10{fill:#BCC4CA;}
	.st11{fill:#FFFFFF;}
	.st12{fill:#282D33;}
	.st13{fill:#E3E3E3;}
</style>
<g id="Icon7">
	<path class="st2" d="M63,60.7c0-0.8-0.2-1.5-0.8-2.1c-0.6-0.7-1.3-1-2.3-1c0-0.2,0-0.5,0-0.7c0-1.2,0-2.4-0.1-3.6
		c-0.6-5.2-5.5-9.1-10.7-8.6c-5,0.6-8.9,4.9-8.8,10c0,0.9,0,1.8,0,2.8c-0.1,0-0.2,0-0.3,0.1c-1.6,0.2-2.8,1.4-2.8,3
		c0,4.4,0,8.7,0,13.1c0,1.8,1.3,3.1,3,3.1c6.6,0,13.1,0,19.7,0c1.8,0,3-1.3,3-3.1C63,69.4,63,65,63,60.7z M51.7,68.3v2.6
		c0,0.9-0.7,1.6-1.6,1.6l0,0c-0.9,0-1.6-0.7-1.6-1.6v-2.6c-1.1-0.6-1.8-1.7-1.8-3c0-1.9,1.5-3.4,3.4-3.4c1.9,0,3.4,1.5,3.4,3.4
		C53.5,66.7,52.7,67.8,51.7,68.3z M56.3,57.5c-4.1,0-8.3,0-12.5,0c0.1-1.7-0.2-3.4,0.4-5.1c1.1-2.8,3.7-4.5,6.6-4.2
		c2.7,0.3,5.1,2.6,5.4,5.5C56.4,55,56.3,56.2,56.3,57.5z"/>
	<path class="st3" d="M71.1,66.7h-2.8c-0.9,0-1.7-0.7-1.7-1.7c0-0.9,0.7-1.7,1.7-1.7h2.8c5.8,0,10.5-4.7,10.5-10.6
		c0-5.5-4.2-10.1-9.7-10.6c-0.8-0.1-1.5-0.7-1.5-1.5c-0.4-6.4-5.8-11.4-12.3-11.4c-1.8,0-3.5,0.4-5.2,1.1c-0.6,0.2-1.2,0.2-1.7-0.2
		c-2.8-2.3-6.3-3.6-9.8-3.6c-8.2,0-14.9,6.7-15,14.8c0,0.7-0.5,1.3-1.1,1.5c-4.2,1.5-7,5.5-7,9.9c0,5.8,4.8,10.6,10.6,10.6h2.8
		c0.9,0,1.7,0.7,1.7,1.7c0,0.9-0.7,1.7-1.7,1.7h-2.8c-7.7,0-13.9-6.2-13.9-13.9c0-5.5,3.2-10.4,8.2-12.6c0.7-9.5,8.7-17,18.3-17
		c4,0,7.9,1.3,11.1,3.8c1.8-0.7,3.7-1,5.6-1c7.7,0,14.3,5.7,15.4,13.2C80.2,40.4,85,46,85,52.8C85,60.5,78.8,66.7,71.1,66.7z"/>
</g>
</svg>
