<?xml version="1.0" encoding="utf-8"?>
<!-- Generator: Adobe Illustrator 24.0.1, SVG Export Plug-In . SVG Version: 6.00 Build 0)  -->
<svg version="1.1" id="Layer_1" xmlns="http://www.w3.org/2000/svg" xmlns:xlink="http://www.w3.org/1999/xlink" x="0px" y="0px"
	 viewBox="0 0 100 100" style="enable-background:new 0 0 100 100;" xml:space="preserve">
<style type="text/css">
	.st0{fill:#213B4F;}
	.st1{fill:#FF912B;}
	.st2{fill:#40BED3;}
</style>
<g id="Icon15">
	<path class="st0" d="M78.5,28.7h-57c-0.8,0-1.5,0.7-1.5,1.5v35c0,0.8,0.7,1.5,1.5,1.5h33v3.1c0,0.6,0.4,1.1,0.9,1.4
		c0.2,0.1,0.4,0.1,0.6,0.1c0.4,0,0.7-0.1,1-0.4l5-4.6l5,4.6c0.3,0.3,0.6,0.4,1,0.4c0.2,0,0.4,0,0.6-0.1c0.5-0.2,0.9-0.8,0.9-1.4
		v-3.1h9c0.8,0,1.5-0.7,1.5-1.5v-35C80,29.4,79.3,28.7,78.5,28.7z M53.6,45.7c-0.1-0.3-0.2-0.6-0.3-0.8c0.1-0.1,0.5-0.4,0.7-0.5
		c0.5-0.3,1.1-0.7,1.5-1.3s0.6-1.3,0.8-1.9c0.1-0.3,0.2-0.7,0.3-0.8c0.2,0,0.6,0,0.9,0c0.6,0,1.3,0.1,2-0.2c0.7-0.2,1.2-0.7,1.7-1
		c0.2-0.2,0.6-0.5,0.8-0.5c0.2,0.1,0.5,0.4,0.8,0.5c0.5,0.4,1,0.8,1.7,1c0.7,0.2,1.4,0.2,2,0.2c0.3,0,0.7,0,0.9,0
		c0.1,0.2,0.2,0.6,0.3,0.8c0.2,0.6,0.3,1.3,0.8,1.9c0.4,0.6,1,1,1.5,1.3c0.2,0.1,0.6,0.4,0.7,0.5c0,0.2-0.2,0.6-0.3,0.8
		c-0.2,0.6-0.5,1.2-0.5,2c0,0.7,0.3,1.4,0.5,2c0.1,0.3,0.2,0.6,0.3,0.8c-0.1,0.1-0.5,0.4-0.7,0.5c-0.5,0.3-1.1,0.7-1.5,1.3
		s-0.6,1.3-0.8,1.9c-0.1,0.3-0.2,0.7-0.3,0.8c-0.2,0-0.6,0-0.9,0c-0.6,0-1.3-0.1-2,0.2c-0.7,0.2-1.2,0.7-1.7,1
		c-0.2,0.2-0.6,0.5-0.8,0.5c-0.2-0.1-0.5-0.4-0.8-0.5c-0.5-0.4-1-0.8-1.7-1c-0.4-0.1-0.9-0.2-1.3-0.2c-0.2,0-0.5,0-0.7,0
		c-0.3,0-0.7,0-0.9,0c-0.1-0.2-0.2-0.6-0.3-0.8c-0.2-0.6-0.3-1.3-0.8-1.9c-0.4-0.6-1-1-1.5-1.3c-0.2-0.1-0.6-0.4-0.7-0.5
		c0-0.2,0.2-0.6,0.3-0.8c0.2-0.6,0.5-1.2,0.5-2C54.1,47,53.8,46.3,53.6,45.7z M63.3,63c0,0-2.6,0-2.7,0l-4,5.3l1-10.3
		c0.1,0,1,0,1.1,0c0.1,0,0.5,0.3,0.7,0.5c0.6,0.5,1.4,1.2,2.6,1.2s2.1-0.7,2.8-1.2c0.2-0.2,0.6-0.5,0.7-0.5c0.2-0.1,1,0,1.1,0
		l1,10.3L63.3,63z M78,64.7h-8.5v-7.6c0.6-0.6,0.8-1.5,1-2.2c0.1-0.3,0.2-0.7,0.3-0.9c0.1-0.1,0.5-0.4,0.7-0.5c0.7-0.5,1.6-1,2-2.1
		c0.3-1.1,0-2-0.3-2.8c-0.1-0.3-0.3-0.7-0.3-0.9s0.2-0.6,0.3-0.9c0.3-0.8,0.7-1.8,0.3-2.8c-0.4-1.1-1.2-1.7-2-2.1
		c-0.3-0.2-0.6-0.4-0.7-0.5s-0.2-0.6-0.3-0.9c-0.2-0.8-0.5-1.8-1.4-2.5s-2-0.6-2.8-0.6c-0.3,0-0.8,0-0.9,0s-0.5-0.3-0.7-0.5
		c-0.6-0.5-1.5-1.2-2.7-1.2s-2,0.7-2.7,1.2c-0.2,0.2-0.6,0.5-0.7,0.5c-0.2,0.1-0.6,0-0.9,0c-0.8,0-1.9-0.1-2.8,0.6
		c-0.9,0.7-1.2,1.7-1.4,2.5c-0.1,0.3-0.2,0.7-0.3,0.9c-0.1,0.1-0.5,0.4-0.7,0.5c-0.7,0.5-1.6,1-2,2.1c-0.3,1.1,0,2,0.3,2.8
		c0.1,0.3,0.3,0.7,0.3,0.9s-0.2,0.6-0.3,0.9c-0.3,0.8-0.7,1.8-0.3,2.8c0.4,1.1,1.2,1.7,2,2.1c0.3,0.2,0.6,0.4,0.7,0.5
		c0.1,0.1,0.2,0.6,0.3,0.9c0.2,0.7,0.4,1.5,1,2.2v7.6H22v-34h56V64.7z"/>
	<path class="st1" d="M62,52.5c2.6,0,4.8-2.2,4.8-4.8s-2.2-4.8-4.8-4.8s-4.8,2.2-4.8,4.8S59.4,52.5,62,52.5z M62,45
		c1.5,0,2.7,1.2,2.7,2.7s-1.2,2.7-2.7,2.7s-2.7-1.2-2.7-2.7S60.5,45,62,45z"/>
	<path class="st2" d="M28.5,42.4h17c0.8,0,1.5-0.5,1.5-1.2S46.3,40,45.5,40h-17c-0.8,0-1.5,0.5-1.5,1.2S27.7,42.4,28.5,42.4z"/>
	<path class="st2" d="M28.5,49.4h17c0.8,0,1.5-0.5,1.5-1.2S46.3,47,45.5,47h-17c-0.8,0-1.5,0.5-1.5,1.2S27.7,49.4,28.5,49.4z"/>
	<path class="st2" d="M28.5,56.4h17c0.8,0,1.5-0.5,1.5-1.2S46.3,54,45.5,54h-17c-0.8,0-1.5,0.5-1.5,1.2S27.7,56.4,28.5,56.4z"/>
</g>
</svg>
