<?xml version="1.0" encoding="utf-8"?>
<!-- Generator: Adobe Illustrator 24.0.1, SVG Export Plug-In . SVG Version: 6.00 Build 0)  -->
<svg version="1.1" id="Layer_1" xmlns="http://www.w3.org/2000/svg" xmlns:xlink="http://www.w3.org/1999/xlink" x="0px" y="0px"
	 viewBox="0 0 100 100" style="enable-background:new 0 0 100 100;" xml:space="preserve">
<style type="text/css">
	.st0{fill:#A6325C;}
	.st1{fill:#FF912B;}
	.st2{fill:#40BED3;}
	.st3{fill:#213B4F;}
	.st4{fill-rule:evenodd;clip-rule:evenodd;fill:#FF912B;}
	.st5{fill:#231F20;}
	.st6{fill:none;}
	.st7{fill:#E68429;}
	.st8{fill:#CC8035;}
	.st9{fill:#DBE0E3;}
	.st10{fill:#BCC4CA;}
	.st11{fill:#FFFFFF;}
	.st12{fill:#282D33;}
	.st13{fill:#E3E3E3;}
</style>
<g id="Icon-Number3">
	<circle class="st3" cx="50" cy="50" r="30"/>
	<g>
		<path class="st11" d="M39.1,59.3l3-3.8c1.8,1.9,4.7,3,7.3,3c3.2,0,5-1.4,5-3.4c0-2.1-1.6-3.1-5.4-3.1c-1.1,0-2.9,0-3.3,0.1v-5.1
			c0.5,0,2.3,0,3.3,0c3,0,5-0.9,5-2.8c0-2.1-2.2-3.2-5-3.2c-2.6,0-4.9,1-6.8,2.8l-2.8-3.6c2.2-2.4,5.5-4.2,10.2-4.2
			c6.2,0,10.1,2.8,10.1,7.2c0,3.4-2.9,5.6-5.8,6.1c2.7,0.3,6.2,2.4,6.2,6.4c0,4.6-4.1,7.8-10.5,7.8C44.7,63.6,41,61.7,39.1,59.3z"/>
	</g>
</g>
</svg>
