<?xml version="1.0" encoding="utf-8"?>
<!-- Generator: Adobe Illustrator 24.0.1, SVG Export Plug-In . SVG Version: 6.00 Build 0)  -->
<svg version="1.1" id="Layer_1" xmlns="http://www.w3.org/2000/svg" xmlns:xlink="http://www.w3.org/1999/xlink" x="0px" y="0px"
	 viewBox="0 0 100 100" style="enable-background:new 0 0 100 100;" xml:space="preserve">
<style type="text/css">
	.st0{fill:#A6325C;}
	.st1{fill:#FF912B;}
	.st2{fill:#40BED3;}
	.st3{fill:#213B4F;}
	.st4{fill-rule:evenodd;clip-rule:evenodd;fill:#FF912B;}
	.st5{fill:#231F20;}
	.st6{fill:none;}
	.st7{fill:#E68429;}
	.st8{fill:#CC8035;}
	.st9{fill:#DBE0E3;}
	.st10{fill:#BCC4CA;}
	.st11{fill:#FFFFFF;}
	.st12{fill:#282D33;}
	.st13{fill:#E3E3E3;}
</style>
<g id="Icon11">
	<circle class="st2" cx="50" cy="50" r="19.4"/>
	<g>
		<g>
			<polygon class="st11" points="50,37.1 61.1,43.5 49.9,49.9 38.7,43.6 			"/>
			<path class="st3" d="M49.9,51.3c-0.2,0-0.5-0.1-0.7-0.2L38,44.8c-0.4-0.2-0.7-0.7-0.7-1.2c0-0.5,0.3-0.9,0.7-1.2l11.2-6.5
				c0.4-0.2,0.9-0.2,1.4,0l11.2,6.4c0.4,0.2,0.7,0.7,0.7,1.2c0,0.5-0.3,0.9-0.7,1.2l-11.2,6.5C50.4,51.3,50.1,51.3,49.9,51.3z
				 M41.5,43.6l8.4,4.8l8.5-4.9L50,38.7L41.5,43.6z"/>
		</g>
		<g>
			<g>
				<polygon class="st1" points="61,43.3 61.1,56.3 49.9,62.8 49.8,49.8 				"/>
			</g>
			<g>
				<g>
					<path class="st3" d="M50,64.3c-0.2,0-0.5-0.1-0.7-0.2c-0.4-0.2-0.7-0.7-0.7-1.2l-0.1-13c0-0.5,0.3-1,0.7-1.2l11.2-6.5
						c0.4-0.2,0.9-0.2,1.4,0c0.4,0.2,0.7,0.7,0.7,1.2l0.1,13c0,0.5-0.3,1-0.7,1.2l-11.2,6.5C50.5,64.2,50.3,64.3,50,64.3z
						 M51.3,50.7l0.1,9.8l8.5-4.9l-0.1-9.8L51.3,50.7z"/>
				</g>
			</g>
		</g>
		<g>
			<g>
				<polygon class="st0" points="49.9,49.9 50,62.9 38.9,56.5 38.7,43.6 				"/>
			</g>
			<g>
				<g>
					<path class="st3" d="M50,64.3C50,64.3,50,64.3,50,64.3c-0.2,0-0.5-0.1-0.7-0.2l-11.2-6.4c-0.4-0.2-0.7-0.7-0.7-1.2l-0.1-13
						c0-0.5,0.3-0.9,0.7-1.2c0.4-0.2,0.9-0.3,1.4,0l11.2,6.4c0.4,0.2,0.7,0.7,0.7,1.2l0.1,12.8c0,0.1,0,0.1,0,0.2
						C51.4,63.7,50.8,64.3,50,64.3z M40.2,55.7l8.4,4.8l-0.1-9.8l-8.4-4.8L40.2,55.7z"/>
				</g>
			</g>
		</g>
	</g>
	<g>
		<polygon class="st12" points="56.4,22 50.4,16 44.4,22 46.3,24 49,21.3 49,27.5 51.8,27.5 51.8,21.3 54.5,24 		"/>
		<polygon class="st12" points="35.4,32.8 30.9,28.4 34.8,28.4 34.8,25.7 26.2,25.7 26.2,34.2 29,34.2 29,30.4 33.4,34.8 		"/>
		<polygon class="st12" points="27.5,48.2 21.3,48.2 24,45.5 22,43.6 16,49.6 22,55.6 24,53.7 21.3,51 27.5,51 		"/>
		<polygon class="st12" points="34.8,66.6 32.8,64.6 28.4,69.1 28.4,65.2 25.7,65.2 25.7,73.8 34.2,73.8 34.2,71 30.4,71 		"/>
		<polygon class="st12" points="71,65.8 71,69.6 66.6,65.2 64.6,67.2 69.1,71.6 65.2,71.6 65.2,74.3 73.8,74.3 73.8,65.8 		"/>
		<polygon class="st12" points="78,44.4 76,46.3 78.7,49 72.5,49 72.5,51.8 78.7,51.8 76,54.5 78,56.4 84,50.4 		"/>
		<polygon class="st12" points="53.7,76 51,78.7 51,72.5 48.2,72.5 48.2,78.7 45.5,76 43.6,78 49.6,84 55.6,78 		"/>
		<polygon class="st12" points="74.3,34.8 74.3,26.2 65.8,26.2 65.8,29 69.6,29 65.2,33.4 67.2,35.4 71.6,30.9 71.6,34.8 		"/>
	</g>
</g>
</svg>
