<?xml version="1.0" encoding="utf-8"?>
<!-- Generator: Adobe Illustrator 24.0.1, SVG Export Plug-In . SVG Version: 6.00 Build 0)  -->
<svg version="1.1" id="Layer_1" xmlns="http://www.w3.org/2000/svg" xmlns:xlink="http://www.w3.org/1999/xlink" x="0px" y="0px"
	 viewBox="0 0 100 100" style="enable-background:new 0 0 100 100;" xml:space="preserve">
<style type="text/css">
	.st0{fill:#A6325C;}
	.st1{fill:#FF912B;}
	.st2{fill:#40BED3;}
	.st3{fill:#213B4F;}
	.st4{fill-rule:evenodd;clip-rule:evenodd;fill:#FF912B;}
	.st5{fill:#231F20;}
	.st6{fill:none;}
	.st7{fill:#E68429;}
	.st8{fill:#CC8035;}
	.st9{fill:#DBE0E3;}
	.st10{fill:#BCC4CA;}
	.st11{fill:#FFFFFF;}
	.st12{fill:#282D33;}
	.st13{fill:#E3E3E3;}
</style>
<g id="Icon5">
	<g>
		<path class="st3" d="M19.8,63.7c0,2.2,0.6,3.1,3,3.1c18.3-0.1,36.6-0.1,54.9,0c2.3,0,3-0.7,3-3c-0.1-11-0.1-21.9,0-32.9
			c0-2.9-1.1-3.5-3.7-3.5c-8.9,0.1-17.7,0-26.6,0c-9.1,0-18.2,0-27.3,0c-2.2,0-3.4,0.4-3.4,3.1C19.9,41.6,19.9,52.6,19.8,63.7z
			 M22.2,30.1c18.6,0,37.2,0,56.1,0c0,11.7,0,22.7,0,34.2c-18.8,0-37.4,0-56.1,0C22.2,53,22.2,41.8,22.2,30.1z"/>
		<path class="st3" d="M82.5,67.3H50.4h-0.8H17.5c-1.6,5.4-1.6,5.3,2.3,5.3c10.1,0,20.1,0,30.2,0c10.1,0,20.1,0,30.2,0
			C84.1,72.6,84.1,72.7,82.5,67.3z M60.2,70.9h-9.8h-0.8h-10v-1.3h10h0.8h9.8V70.9z"/>
	</g>
	<path class="st4" d="M68.6,32.1c-1.6,0-2.9,1.3-2.9,2.9c0,1.3,0.9,2.5,2.1,2.8v2.6c0,0.9-0.7,1.6-1.6,1.6h-4.9
		c-0.4,0-0.8,0.4-0.8,0.8c0,0.4,0.4,0.8,0.8,0.8h4.9c1.8,0,3.2-1.4,3.2-3.2v-2.6c1.2-0.4,2.1-1.5,2.1-2.8
		C71.5,33.4,70.2,32.1,68.6,32.1z M68.6,36.3c-0.7,0-1.3-0.6-1.3-1.3c0-0.7,0.6-1.3,1.3-1.3c0.7,0,1.3,0.6,1.3,1.3
		C69.9,35.7,69.3,36.3,68.6,36.3z"/>
	<path class="st4" d="M69.4,57.2v-2.6c0-1.8-1.4-3.2-3.2-3.2l-4.9,0c-0.4,0-0.8,0.4-0.8,0.8c0,0.4,0.4,0.8,0.8,0.8h4.9
		c0.9,0,1.6,0.7,1.6,1.6v2.6c-1.2,0.4-2.1,1.5-2.1,2.8c0,1.6,1.3,2.9,2.9,2.9c1.6,0,2.9-1.3,2.9-2.9C71.5,58.7,70.6,57.5,69.4,57.2z
		 M68.6,61.3c-0.7,0-1.3-0.6-1.3-1.3c0-0.7,0.6-1.3,1.3-1.3c0.7,0,1.3,0.6,1.3,1.3C69.9,60.7,69.3,61.3,68.6,61.3z"/>
	<path class="st4" d="M68.6,44.6c-1.3,0-2.5,0.9-2.8,2.1l-4.4,0c-0.4,0-0.8,0.4-0.8,0.8c0,0.4,0.4,0.8,0.8,0.8h4.4
		c0.4,1.2,1.5,2.1,2.8,2.1c1.6,0,2.9-1.3,2.9-2.9C71.5,45.9,70.2,44.6,68.6,44.6z M68.6,48.8c-0.7,0-1.3-0.6-1.3-1.3
		c0-0.7,0.6-1.3,1.3-1.3c0.7,0,1.3,0.6,1.3,1.3C69.9,48.2,69.3,48.8,68.6,48.8z"/>
	<path class="st4" d="M38.5,51.4h-4.9c-1.8,0-3.2,1.4-3.2,3.2v2.6c-1.2,0.4-2.1,1.5-2.1,2.8c0,1.6,1.3,2.9,2.9,2.9
		c1.6,0,2.9-1.3,2.9-2.9c0-1.3-0.9-2.5-2.1-2.8v-2.6c0-0.9,0.7-1.6,1.6-1.6h4.9c0.4,0,0.8-0.4,0.8-0.8C39.3,51.8,39,51.4,38.5,51.4z
		 M32.6,60c0,0.7-0.6,1.3-1.3,1.3c-0.7,0-1.3-0.6-1.3-1.3c0-0.7,0.6-1.3,1.3-1.3C32,58.7,32.6,59.3,32.6,60z"/>
	<path class="st4" d="M38.5,42h-4.9c-0.9,0-1.6-0.7-1.6-1.6v-2.6c1.2-0.4,2.1-1.5,2.1-2.8c0-1.6-1.3-2.9-2.9-2.9
		c-1.6,0-2.9,1.3-2.9,2.9c0,1.3,0.9,2.5,2.1,2.8v2.6c0,1.8,1.4,3.2,3.2,3.2h4.9c0.4,0,0.8-0.4,0.8-0.8C39.3,42.4,39,42,38.5,42z
		 M31.3,36.3c-0.7,0-1.3-0.6-1.3-1.3c0-0.7,0.6-1.3,1.3-1.3c0.7,0,1.3,0.6,1.3,1.3C32.6,35.7,32,36.3,31.3,36.3z"/>
	<path class="st4" d="M38.5,46.7h-4.4c-0.4-1.2-1.5-2.1-2.8-2.1c-1.6,0-2.9,1.3-2.9,2.9c0,1.6,1.3,2.9,2.9,2.9
		c1.3,0,2.5-0.9,2.8-2.1h4.4c0.4,0,0.8-0.4,0.8-0.8C39.3,47.1,39,46.7,38.5,46.7z M31.3,48.8c-0.7,0-1.3-0.6-1.3-1.3
		c0-0.7,0.6-1.3,1.3-1.3c0.7,0,1.3,0.6,1.3,1.3C32.6,48.2,32,48.8,31.3,48.8z"/>
	<path class="st2" d="M59.2,43.6c0-0.6-0.2-1.1-0.6-1.5c-0.4-0.5-1-0.7-1.6-0.7c0-0.2,0-0.3,0-0.5c0-0.9,0-1.7-0.1-2.6
		c-0.4-3.8-4-6.6-7.8-6.2c-3.6,0.4-6.4,3.6-6.4,7.3c0,0.7,0,1.3,0,2c-0.1,0-0.1,0-0.2,0c-1.2,0.1-2,1-2,2.2c0,3.1,0,6.3,0,9.4
		c0,1.3,0.9,2.2,2.2,2.2c4.7,0,9.5,0,14.2,0c1.3,0,2.2-1,2.2-2.2C59.2,49.8,59.2,46.7,59.2,43.6z M51,49.1V51c0,0.6-0.5,1.1-1.1,1.1
		l0,0c-0.6,0-1.1-0.5-1.1-1.1v-1.9c-0.8-0.4-1.3-1.2-1.3-2.1c0-1.3,1.1-2.4,2.4-2.4c1.3,0,2.4,1.1,2.4,2.4
		C52.3,47.9,51.7,48.7,51,49.1z M54.3,41.3c-3,0-6,0-9.1,0c0.1-1.2-0.2-2.5,0.3-3.7c0.8-2,2.7-3.2,4.8-3c2,0.2,3.7,1.9,3.9,4
		C54.4,39.4,54.3,40.3,54.3,41.3z"/>
</g>
</svg>
