<?xml version="1.0" encoding="utf-8"?>
<!-- Generator: Adobe Illustrator 24.0.1, SVG Export Plug-In . SVG Version: 6.00 Build 0)  -->
<svg version="1.1" id="Layer_1" xmlns="http://www.w3.org/2000/svg" xmlns:xlink="http://www.w3.org/1999/xlink" x="0px" y="0px"
	 viewBox="0 0 100 100" style="enable-background:new 0 0 100 100;" xml:space="preserve">
<style type="text/css">
	.st0{fill:#A6325C;}
	.st1{fill:#FF912B;}
	.st2{fill:#40BED3;}
	.st3{fill:#213B4F;}
	.st4{fill-rule:evenodd;clip-rule:evenodd;fill:#FF912B;}
	.st5{fill:#231F20;}
	.st6{fill:none;}
	.st7{fill:#E68429;}
	.st8{fill:#CC8035;}
	.st9{fill:#DBE0E3;}
	.st10{fill:#BCC4CA;}
	.st11{fill:#FFFFFF;}
	.st12{fill:#282D33;}
	.st13{fill:#E3E3E3;}
</style>
<g id="Icon24">
	<rect x="50" y="28.1" class="st1" width="6.2" height="14.8"/>
	<rect x="31.7" y="42.6" transform="matrix(-0.5 -0.866 0.866 -0.5 8.9535 105.1693)" class="st2" width="6.2" height="14.8"/>
	<rect x="54.5" y="51.2" transform="matrix(0.5 -0.866 0.866 0.5 -21.9348 79.219)" class="st0" width="6.2" height="14.8"/>
	<path class="st3" d="M80.1,42.3l-5-0.3c0.3-0.6,0.4-1.3,0.2-2c-0.2-0.7-0.7-1.3-1.3-1.7c-0.3-0.2-0.5-0.3-0.8-0.3l0.1-0.3l-1-0.6
		l1,0.6c0.8-1.3,0.3-3-1-3.7c-1.1-0.7-2.5-0.4-3.4,0.5c-0.2-0.2-0.4-0.4-0.7-0.6c-1.3-0.8-3-0.3-3.8,1L63.9,36
		c-0.2-0.2-0.4-0.4-0.7-0.6c-0.6-0.4-1.4-0.5-2.1-0.3c-0.7,0.2-1.3,0.6-1.7,1.3l-2.2,3.8V29.4c0,0,0,0,0,0l22.3-2
		c0.5,0,0.9-0.5,0.9-1c0-0.5-0.5-0.9-1-0.9l-23,2c-0.4-0.4-1-0.6-1.6-0.6h-3.4c-0.5,0-1,0.1-1.4,0.4c-0.8-1.2-1.9-1.5-2.8-1.7
		c-0.5-0.1-1-0.2-1.5-0.5c-0.5-0.3-0.9-0.6-1.5-1.1c-0.5-0.4-1.2-0.9-2-1.6c-0.1-0.1-0.2-0.1-0.3-0.2c-0.6-0.4-1.2-0.9-1.9-1.1
		c-1-0.3-1.9-0.1-2.7,0.7c-0.7,0.7-1,1.4-1,2.2c0,1.1,0.6,2.2,1.9,3.4c0.4,0.4,0.7,0.7,1,0.9h-7.1l-4.8-9c-0.2-0.5-0.8-0.6-1.3-0.4
		c-0.5,0.2-0.6,0.8-0.4,1.3l4.3,8.1c-1.5,0-2.7,1.3-2.7,2.8c0,0.3,0.1,0.6,0.1,0.9h-0.3v0c-1.5,0-2.7,1.2-2.7,2.8
		c0,1.3,0.9,2.4,2.1,2.7c-0.1,0.3-0.2,0.6-0.2,0.9c0,1.5,1.2,2.8,2.7,2.8h1.3c-0.1,0.3-0.1,0.6-0.1,0.9c0,1.5,1.2,2.8,2.7,2.8l2.5,0
		l-8,4.6c0,0,0,0,0,0l-6.9-10.8c-0.3-0.4-0.9-0.6-1.3-0.3c-0.4,0.3-0.6,0.9-0.3,1.3l7.3,11.5c-0.1,0.6,0,1.1,0.3,1.6l1.7,2.9
		c0.3,0.5,0.6,0.8,1.1,1c-0.7,1.3-0.4,2.4-0.1,3.3c0.2,0.5,0.3,1,0.3,1.6c0,0.5-0.1,1.1-0.2,1.8c-0.1,0.7-0.2,1.5-0.3,2.5
		c0,0.1,0,0.2,0,0.4c-0.1,0.7-0.1,1.5,0,2.2c0.2,1,0.9,1.7,1.9,1.9c0.9,0.2,1.7,0.1,2.4-0.3c0.9-0.5,1.5-1.6,2-3.4
		c0.1-0.5,0.2-0.9,0.3-1.3l4,6.9l-4.4,6.9c-0.3,0.4-0.1,1,0.3,1.3c0.2,0.1,0.3,0.1,0.5,0.1c0.3,0,0.6-0.2,0.8-0.4l3.9-6.2
		c0.5,0.4,1.2,0.7,1.8,0.7c0.5,0,0.9-0.1,1.4-0.4c0.3-0.2,0.5-0.3,0.7-0.6l0.1,0.3l1.6-0.9l-4.4-7.6l-1.6,0.9l3,5.1h0
		c0.2,0.4,0.1,0.9-0.3,1.2c-0.4,0.2-0.9,0.1-1.2-0.3l-5.2-8.9c-0.5-0.8-1.1-0.9-1.5-0.9c-0.3,0.1-0.8,0.3-1.1,1
		c-0.1,0.2-0.1,0.5-0.2,0.5c0,0.2-0.1,0.3-0.1,0.5c-0.1,0.4-0.2,0.9-0.3,1.5c-0.4,1.5-0.8,2.1-1.1,2.2c-0.1,0.1-0.4,0.2-0.9,0
		c-0.4-0.1-0.5-0.3-0.6-0.6c-0.1-0.4,0-1.1,0-1.6c0-0.1,0-0.3,0-0.4c0.1-1,0.2-1.8,0.3-2.4c0.1-0.8,0.2-1.4,0.2-2.1
		c0-0.9-0.2-1.6-0.4-2.1c-0.3-0.9-0.4-1.3,0-1.9l0.1-0.1c0.1-0.2,0.2-0.5,0.2-0.8l10.4-6c0.1,0.1,0.3,0.3,0.4,0.5l0.2,0.4l0.4,0.1
		c1.2,0.3,2.3,1,2.9,2.1l5.7,9.9c0.1,0.2,0.1,0.4,0.1,0.6c-0.1,0.2-0.2,0.4-0.4,0.5c-0.4,0.2-0.9,0.1-1.1-0.2L48,61l-1.6,0.9l2,3.5
		l0,0c0,0,0.1,0.1,0.1,0.1l1.9,3.2c0.2,0.4,0.1,0.9-0.3,1.2c-0.2,0.1-0.4,0.2-0.7,0.1c-0.2,0-0.4-0.2-0.5-0.3l-3.5-6l-1.6,0.9
		l3.4,5.9l0,0c0,0,0.1,0.1,0.1,0.1l0.9,1.6c0.2,0.4,0.1,0.9-0.3,1.2c-0.2,0.1-0.4,0.2-0.7,0.1c-0.2-0.1-0.4-0.2-0.5-0.4L45,74.1
		c0.4,0.6,1,1.1,1.7,1.3c0.2,0.1,0.5,0.1,0.7,0.1c0.5,0,1-0.1,1.4-0.4c1.1-0.7,1.6-2,1.3-3.2c0.3-0.1,0.6-0.2,0.9-0.3
		c1.3-0.8,1.8-2.4,1-3.7l-0.6-1.1c0.3-0.1,0.6-0.2,0.8-0.3c0.6-0.4,1.1-1,1.3-1.7c0.2-0.7,0.1-1.4-0.3-2.1l-1.7-2.9l9.3,5.4
		c0,0,0,0,0.1,0l-6.7,14.6c-0.2,0.5,0,1,0.5,1.3c0.1,0.1,0.3,0.1,0.4,0.1c0.4,0,0.7-0.2,0.9-0.5l7-15.2c0.5-0.2,0.9-0.6,1.2-1
		l1.7-2.9c0.3-0.5,0.4-0.9,0.3-1.4c1.5-0.1,2.2-0.9,2.9-1.6c0.4-0.4,0.7-0.8,1.2-1.1c0.5-0.3,1-0.5,1.6-0.7c0.6-0.2,1.4-0.5,2.4-1
		c0.1-0.1,0.2-0.1,0.3-0.2c0.6-0.3,1.4-0.6,1.9-1.1c0.8-0.7,1-1.6,0.7-2.6c-0.3-0.9-0.7-1.5-1.4-1.9c-0.9-0.5-2.2-0.5-3.9,0
		c-0.5,0.2-0.9,0.3-1.3,0.4l3.6-6.2l5.9,0.4c0,0,0,0,0.1,0c0.5,0,0.9-0.4,0.9-0.9C81,42.8,80.6,42.4,80.1,42.3z M51.5,28.8h3.4
		c0.3,0,0.5,0.2,0.5,0.5v11.9c0,0.3-0.2,0.5-0.5,0.5h-3.4c-0.2,0-0.4-0.1-0.5-0.3V29c0,0,0.1,0,0.1-0.1
		C51.2,28.9,51.3,28.8,51.5,28.8z M33.1,42.9c-0.5,0-0.9-0.4-0.9-0.9c0-0.4,0.3-0.8,0.8-0.9h4.1v-1.9h-4v0c-0.1,0-0.1,0-0.2,0h-3.7
		c-0.5,0-0.9-0.4-0.9-0.9c0-0.4,0.3-0.8,0.8-0.9H36v-1.9h-6.8v0c-0.1,0-0.1,0-0.2,0h-1.8c-0.5,0-0.9-0.4-0.9-0.9s0.4-0.9,0.9-0.9v0
		H36v-1.9h-5.9c-0.5,0-0.9-0.4-0.9-0.9c0-0.5,0.4-0.9,0.9-0.9h10.3c1,0,1.4-0.5,1.5-0.8c0.1-0.3,0.2-0.8-0.4-1.5
		c-0.2-0.2-0.3-0.4-0.4-0.4c-0.1-0.1-0.3-0.2-0.4-0.4c-0.3-0.3-0.7-0.6-1.2-1.1c-1.1-1.1-1.4-1.7-1.4-2.1c0-0.2,0-0.4,0.4-0.8
		c0.3-0.3,0.5-0.3,0.8-0.2c0.4,0.1,0.9,0.5,1.4,0.8c0.1,0.1,0.2,0.2,0.3,0.2c0.8,0.6,1.4,1,1.9,1.5c0.6,0.5,1.1,0.9,1.7,1.2
		c0.8,0.4,1.5,0.6,2.1,0.7c0.9,0.2,1.3,0.3,1.7,0.9l0.1,0.1c0.1,0.2,0.3,0.4,0.6,0.5v12c-0.2,0-0.4,0.1-0.6,0.1h-0.4l-0.3,0.3
		c-0.8,0.9-2,1.5-3.3,1.5L33.1,42.9z M28.4,51.8c-0.1-0.1-0.1-0.3-0.1-0.4c0-0.1,0.1-0.3,0.2-0.3l10.3-6C39,45,39.2,45,39.3,45
		c0.1,0,0.3,0.1,0.3,0.2l1.7,2.9c0.1,0.2,0.1,0.4,0,0.5L30.4,55c0,0-0.1,0-0.1,0c-0.1,0-0.2-0.1-0.3-0.3L28.4,51.8z M47.4,52.7
		c-0.8-1.4-2.2-2.5-3.8-2.9c-0.1-0.2-0.3-0.4-0.5-0.6c0.2-0.6,0.2-1.4-0.2-2l-1.4-2.5l3,0c1.6,0,3.2-0.7,4.4-1.8
		c0.2,0,0.5-0.1,0.7-0.1c0.4,0.5,1.1,0.8,1.8,0.8h3.4c0.2,0,0.3,0,0.5,0l-1.6,2.7c-0.8,1.4-1.1,3.1-0.7,4.7
		c-0.1,0.2-0.2,0.5-0.3,0.7c-0.7,0.1-1.3,0.5-1.6,1.2l-1.7,2.9c-0.1,0.1-0.1,0.2-0.2,0.3L47.4,52.7z M64.1,60.4l-1.7,2.9
		c-0.1,0.1-0.2,0.2-0.3,0.2c-0.1,0-0.3,0-0.4-0.1l-10.3-6c-0.1-0.1-0.2-0.2-0.2-0.3c0-0.1,0-0.3,0.1-0.4l1.7-2.9
		c0.1-0.2,0.3-0.3,0.5-0.3l10.9,6.3c0,0,0,0.1,0,0.1C64.2,60.1,64.2,60.2,64.1,60.4z M68.3,51.8c0.2,0.3,0.6,0.5,1.4,0.4
		c0.3,0,0.5-0.1,0.6-0.1c0.2-0.1,0.3-0.1,0.5-0.2c0.4-0.1,0.8-0.3,1.5-0.5c1.5-0.4,2.2-0.3,2.5-0.1c0.1,0.1,0.4,0.3,0.5,0.8
		c0.1,0.4,0,0.6-0.2,0.8c-0.3,0.3-0.9,0.6-1.4,0.8c-0.1,0.1-0.2,0.1-0.4,0.2c-0.9,0.4-1.6,0.7-2.2,0.9c-0.7,0.3-1.3,0.5-1.9,0.9
		c-0.7,0.4-1.2,1-1.6,1.4c-0.6,0.7-0.9,1-1.6,1l-0.1,0c-0.3,0-0.5,0.1-0.8,0.2l-10.4-6c0.1-0.2,0.1-0.4,0.2-0.6l0.2-0.4L55,50.9
		c-0.4-1.2-0.2-2.5,0.4-3.6l5.7-9.9c0.1-0.2,0.3-0.3,0.5-0.4c0.2-0.1,0.5,0,0.7,0.1c0.4,0.2,0.5,0.7,0.4,1.1l-2.1,3.6l1.6,0.9l2-3.5
		l0,0c0,0,0.1-0.1,0.1-0.2l1.9-3.2c0.2-0.4,0.8-0.5,1.2-0.3c0.4,0.2,0.5,0.7,0.4,1.1l-3.5,6l1.6,0.9l3.4-5.9l0,0
		c0,0,0.1-0.1,0.1-0.2l0.9-1.6c0.2-0.4,0.8-0.5,1.2-0.3c0.4,0.2,0.6,0.8,0.3,1.2l0,0l-4.4,7.6l1.6,0.9l3-5.1l0,0
		c0.2-0.4,0.8-0.5,1.2-0.3c0.2,0.1,0.4,0.3,0.4,0.5c0.1,0.2,0,0.4-0.1,0.6l-5.2,8.9C67.8,50.9,68,51.5,68.3,51.8z"/>
</g>
</svg>
