<?xml version="1.0" encoding="utf-8"?>
<!-- Generator: Adobe Illustrator 24.0.1, SVG Export Plug-In . SVG Version: 6.00 Build 0)  -->
<svg version="1.1" id="Layer_1" xmlns="http://www.w3.org/2000/svg" xmlns:xlink="http://www.w3.org/1999/xlink" x="0px" y="0px"
	 viewBox="0 0 100 100" style="enable-background:new 0 0 100 100;" xml:space="preserve">
<style type="text/css">
	.st0{fill:#A6325C;}
	.st1{fill:#FF912B;}
	.st2{fill:#40BED3;}
	.st3{fill:#213B4F;}
	.st4{fill-rule:evenodd;clip-rule:evenodd;fill:#FF912B;}
	.st5{fill:#231F20;}
	.st6{fill:none;}
	.st7{fill:#E68429;}
	.st8{fill:#CC8035;}
	.st9{fill:#DBE0E3;}
	.st10{fill:#BCC4CA;}
	.st11{fill:#FFFFFF;}
	.st12{fill:#282D33;}
	.st13{fill:#E3E3E3;}
</style>
<g id="Icon8">
	<g>
		<path class="st3" d="M19.3,63.9c0,2.3,0.6,3.1,3,3.1c18.6-0.1,37.1-0.1,55.7,0c2.3,0,3.1-0.7,3-3.1c-0.1-11.1-0.2-22.2,0-33.3
			c0-3-1.1-3.6-3.7-3.5c-9,0.1-18,0-27,0c-9.2,0-18.4,0-27.7,0c-2.3,0-3.4,0.4-3.4,3.1C19.5,41.4,19.4,52.7,19.3,63.9z M21.8,29.8
			c18.9,0,37.7,0,56.9,0c0,11.8,0,23,0,34.7c-19,0-37.9,0-56.9,0C21.8,53,21.8,41.7,21.8,29.8z"/>
		<path class="st3" d="M83,67.5H50.4h-0.8H17c-1.7,5.5-1.7,5.4,2.4,5.4c10.2,0,20.4,0,30.6,0c10.2,0,20.4,0,30.6,0
			C84.6,72.9,84.6,73,83,67.5z M60.4,71.2h-10h-0.8H39.5v-1.3h10.1h0.8h10V71.2z"/>
	</g>
	<g>
		<g>
			<path class="st5" d="M63.7,32.4H46.8c-0.5,0-0.9,0.4-0.9,0.9v27.5c0,0.5,0.4,0.9,0.9,0.9h16.9c0.5,0,0.9-0.4,0.9-0.9V33.3
				C64.6,32.8,64.2,32.4,63.7,32.4z"/>
			<path class="st3" d="M63.7,32.4H46.8c-0.5,0-0.9,0.4-0.9,0.9V60c0,0.5,0.4,0.9,0.9,0.9h16.9c0.5,0,0.9-0.4,0.9-0.9V33.3
				C64.6,32.8,64.2,32.4,63.7,32.4z"/>
			<path class="st6" d="M42.7,47c0,2.1,0.9,4,2.4,5.4V41.7C43.6,43,42.7,44.9,42.7,47z"/>
			<path class="st1" d="M41.2,47c0-3,1.5-5.6,3.8-7.2v-3.6c-0.4,0.2-0.7,0.3-1,0.5l-2.2-1.7c-0.2-0.2-0.5-0.1-0.7,0L38,38.3
				c-0.2,0.2-0.2,0.5,0,0.7l1.7,2.2C39.2,42,38.8,43,38.5,44l-2.7,0.3c-0.3,0-0.4,0.2-0.4,0.5v4.5c0,0.3,0.2,0.5,0.4,0.5l2.7,0.3
				c0.3,1,0.7,2,1.2,2.8L38,55.1c-0.2,0.2-0.1,0.5,0,0.7l3.1,3.1c0.2,0.2,0.5,0.2,0.7,0l2.2-1.7c0.3,0.2,0.7,0.4,1,0.5v-3.6
				C42.8,52.7,41.2,50,41.2,47z"/>
			<path class="st7" d="M41.2,47c0,3,1.5,5.6,3.8,7.2v-1.8c-1.5-1.3-2.4-3.2-2.4-5.4c0-2.1,0.9-4,2.4-5.4v-1.8
				C42.8,41.4,41.2,44,41.2,47z"/>
			<path class="st7" d="M45.9,54.8c-0.3-0.2-0.6-0.3-0.8-0.5v3.6c0.3,0.1,0.6,0.2,0.8,0.3V54.8z"/>
			<path class="st7" d="M45.1,39.8c0.3-0.2,0.5-0.4,0.8-0.5v-3.4c-0.3,0.1-0.6,0.2-0.8,0.3"/>
			<path class="st8" d="M45.9,54.8v-1.7c-0.3-0.2-0.6-0.4-0.8-0.7v1.8C45.3,54.4,45.6,54.6,45.9,54.8z"/>
			<path class="st8" d="M45.1,41.7c0.3-0.2,0.5-0.5,0.8-0.7v-1.7c-0.3,0.2-0.6,0.3-0.8,0.5V41.7z"/>
			<path class="st9" d="M50,34.8c-0.3,0-0.6,0.3-0.6,0.6v22.5c0,0.3,0.3,0.6,0.6,0.6c0.3,0,0.6-0.3,0.6-0.6V35.4
				C50.7,35,50.4,34.8,50,34.8z"/>
			<path class="st9" d="M55.2,34.8c-0.3,0-0.6,0.3-0.6,0.6v22.5c0,0.3,0.3,0.6,0.6,0.6c0.3,0,0.6-0.3,0.6-0.6V35.4
				C55.9,35,55.6,34.8,55.2,34.8z"/>
			<path class="st9" d="M60.4,34.8c-0.3,0-0.6,0.3-0.6,0.6v22.5c0,0.3,0.3,0.6,0.6,0.6s0.6-0.3,0.6-0.6V35.4
				C61.1,35,60.8,34.8,60.4,34.8z"/>
			<g>
				<path class="st5" d="M61.7,39.1h-2.5c-0.8,0-1.4,0.6-1.4,1.4v0c0,0.8,0.6,1.4,1.4,1.4h2.5c0.8,0,1.4-0.6,1.4-1.4v0
					C63.1,39.7,62.5,39.1,61.7,39.1z"/>
				<path class="st1" d="M61.7,38.7h-2.5c-0.8,0-1.4,0.6-1.4,1.4v0c0,0.8,0.6,1.4,1.4,1.4h2.5c0.8,0,1.4-0.6,1.4-1.4v0
					C63.1,39.4,62.5,38.7,61.7,38.7z"/>
			</g>
			<g>
				<path class="st5" d="M56.5,48.8H54c-0.8,0-1.4,0.6-1.4,1.4v0c0,0.8,0.6,1.4,1.4,1.4h2.5c0.8,0,1.4-0.6,1.4-1.4v0
					C57.9,49.4,57.3,48.8,56.5,48.8z"/>
				<path class="st0" d="M56.5,48.5H54c-0.8,0-1.4,0.6-1.4,1.4v0c0,0.8,0.6,1.4,1.4,1.4h2.5c0.8,0,1.4-0.6,1.4-1.4v0
					C57.9,49.1,57.3,48.5,56.5,48.5z"/>
			</g>
			<path class="st5" d="M51.3,43.6h-2.5c-0.8,0-1.4,0.6-1.4,1.4v0c0,0.8,0.6,1.4,1.4,1.4h2.5c0.8,0,1.4-0.6,1.4-1.4v0
				C52.7,44.2,52,43.6,51.3,43.6z"/>
			<path class="st2" d="M51.3,43.3h-2.5c-0.8,0-1.4,0.6-1.4,1.4v0c0,0.8,0.6,1.4,1.4,1.4h2.5c0.8,0,1.4-0.6,1.4-1.4v0
				C52.7,43.9,52,43.3,51.3,43.3z"/>
		</g>
	</g>
</g>
</svg>
