<?xml version="1.0" encoding="utf-8"?>
<!-- Generator: Adobe Illustrator 24.0.1, SVG Export Plug-In . SVG Version: 6.00 Build 0)  -->
<svg version="1.1" id="Layer_1" xmlns="http://www.w3.org/2000/svg" xmlns:xlink="http://www.w3.org/1999/xlink" x="0px" y="0px"
	 viewBox="0 0 100 100" style="enable-background:new 0 0 100 100;" xml:space="preserve">
<style type="text/css">
	.st0{fill:#A6325C;}
	.st1{fill:#FF912B;}
	.st2{fill:#40BED3;}
	.st3{fill:#213B4F;}
	.st4{fill-rule:evenodd;clip-rule:evenodd;fill:#FF912B;}
	.st5{fill:#231F20;}
	.st6{fill:none;}
	.st7{fill:#E68429;}
	.st8{fill:#CC8035;}
	.st9{fill:#DBE0E3;}
	.st10{fill:#BCC4CA;}
	.st11{fill:#FFFFFF;}
	.st12{fill:#282D33;}
	.st13{fill:#E3E3E3;}
</style>
<g id="Icon12">
	<path class="st3" d="M50,50c6.6,0,12-5.4,12-12c0-6.6-5.4-12-12-12s-12,5.4-12,12C38,44.6,43.4,50,50,50z M50,29.1c4.9,0,9,4,9,9
		c0,4.9-4,9-9,9c-4.9,0-9-4-9-9C41,33.1,45.1,29.1,50,29.1z"/>
	<path class="st1" d="M71.6,53c4.7,0,8.5-3.8,8.5-8.5c0-4.7-3.8-8.5-8.5-8.5c-4.7,0-8.5,3.8-8.5,8.5C63.1,49.2,66.9,53,71.6,53z
		 M71.6,38.2c3.5,0,6.4,2.9,6.4,6.4c0,3.5-2.9,6.4-6.4,6.4c-3.5,0-6.4-2.9-6.4-6.4C65.3,41,68.1,38.2,71.6,38.2z"/>
	<path class="st2" d="M36.9,44.5c0-4.7-3.8-8.5-8.5-8.5c-4.7,0-8.5,3.8-8.5,8.5c0,4.7,3.8,8.5,8.5,8.5C33.1,53,36.9,49.2,36.9,44.5z
		 M34.7,44.5c0,3.5-2.9,6.4-6.4,6.4c-3.5,0-6.4-2.9-6.4-6.4c0-3.5,2.9-6.4,6.4-6.4C31.9,38.2,34.7,41,34.7,44.5z"/>
	<path class="st2" d="M34.7,61.2c0.4-0.8,0.9-1.6,1.4-2.3c-2.1-2.3-4.8-3.7-7.7-3.7c-6.4,0-11.7,6.6-11.7,14.8h2.3
		c0-6.5,4.2-11.9,9.3-11.9C30.8,58.1,33,59.3,34.7,61.2z"/>
	<path class="st1" d="M71.6,55.1c-3,0-5.7,1.4-7.7,3.7c0.5,0.7,1,1.5,1.4,2.3c1.7-1.9,3.9-3.1,6.3-3.1c5.1,0,9.3,5.3,9.3,11.9h2.3
		C83.3,61.7,78.1,55.1,71.6,55.1z"/>
	<path class="st3" d="M36.8,73.9c0-9.2,5.9-16.7,13.2-16.7s13.2,7.5,13.2,16.7h3.3C66.4,62.4,59.1,53,50,53s-16.4,9.4-16.4,20.9
		H36.8z"/>
</g>
</svg>
